<svg width="24" height="24" viewBox="0 0 24 24" fill="none" xmlns="http://www.w3.org/2000/svg">
<path fill-rule="evenodd" clip-rule="evenodd" d="M3.5 4.5V6.5H20.5V4.5H3.5ZM21.5 9.44999C22.6411 9.21836 23.5 8.20948 23.5 7V4C23.5 2.61929 22.3807 1.5 21 1.5H3C1.61929 1.5 0.5 2.61929 0.5 4V7C0.5 8.20948 1.35888 9.21836 2.5 9.44999V19C2.5 19.9283 2.86875 20.8185 3.52513 21.4749C4.1815 22.1313 5.07174 22.5 6 22.5H18C18.9283 22.5 19.8185 22.1313 20.4749 21.4749C21.1312 20.8185 21.5 19.9283 21.5 19V9.44999ZM18.5 9.5H5.5V19C5.5 19.1326 5.55268 19.2598 5.64645 19.3536C5.74021 19.4473 5.86739 19.5 6 19.5H18C18.1326 19.5 18.2598 19.4473 18.3536 19.3536C18.4473 19.2598 18.5 19.1326 18.5 19V9.5ZM8.5 12C8.5 11.1716 9.17157 10.5 10 10.5H14C14.8284 10.5 15.5 11.1716 15.5 12C15.5 12.8284 14.8284 13.5 14 13.5H10C9.17157 13.5 8.5 12.8284 8.5 12Z" fill="#09090B"/>
</svg>
