<svg width="24" height="24" viewBox="0 0 24 24" fill="none" xmlns="http://www.w3.org/2000/svg">
<path fill-rule="evenodd" clip-rule="evenodd" d="M14.7369 1.37657C15.1386 1.6005 15.3358 2.06947 15.2148 2.51312L13.3092 9.5H20.25C20.6482 9.5 21.0084 9.73625 21.1671 10.1015C21.3258 10.4667 21.2528 10.8912 20.9811 11.1823L10.4811 22.4323C10.1673 22.7685 9.6647 22.8474 9.26305 22.6234C8.8614 22.3995 8.66424 21.9305 8.78524 21.4869L10.6907 14.5H3.75C3.3518 14.5 2.99155 14.2638 2.83285 13.8986C2.67415 13.5333 2.74725 13.1088 3.01894 12.8177L13.5189 1.56769C13.8327 1.23151 14.3353 1.15265 14.7369 1.37657ZM6.05122 12.5H12C12.3117 12.5 12.6055 12.6453 12.7947 12.893C12.9839 13.1407 13.0468 13.4624 12.9648 13.7631L11.7792 18.1103L17.9488 11.5H12C11.6883 11.5 11.3945 11.3547 11.2053 11.107C11.0161 10.8593 10.9532 10.5376 11.0352 10.2369L12.2208 5.8897L6.05122 12.5Z" fill="black"/>
</svg>
