<svg width="24" height="24" viewBox="0 0 24 24" fill="none" xmlns="http://www.w3.org/2000/svg">
<path fill-rule="evenodd" clip-rule="evenodd" d="M19.875 3.24976C19.6429 3.24976 19.4202 3.34197 19.2561 3.50611L18.276 4.48679L19.5135 5.72429L20.4939 4.7439C20.658 4.57976 20.7502 4.35713 20.7502 4.125C20.7502 3.89287 20.658 3.67025 20.4939 3.50611C20.3298 3.34197 20.1071 3.24976 19.875 3.24976ZM18.0993 7.1385L16.8624 5.90166L4.88731 17.8749C4.88722 17.875 4.8874 17.8748 4.88731 17.8749C4.4765 18.286 4.17427 18.7933 4.00842 19.3503L3.73628 20.2637L4.64945 19.9916C5.20653 19.8258 5.71374 19.5237 6.12489 19.1129C6.12496 19.1128 6.12482 19.113 6.12489 19.1129L18.0993 7.1385ZM16.1286 3.80719C16.1371 3.79804 16.1458 3.78901 16.1547 3.78011L17.8417 2.09211C18.3809 1.55289 19.1124 1.24976 19.875 1.24976C20.6376 1.24976 21.3689 1.55268 21.9081 2.0919C22.4473 2.63111 22.7502 3.36244 22.7502 4.125C22.7502 4.88757 22.4473 5.6189 21.9081 6.15811L7.5391 20.5271C6.89295 21.1729 6.0959 21.6478 5.22034 21.9084L2.53554 22.7084C2.18363 22.8132 1.80255 22.7168 1.54289 22.4571C1.28324 22.1975 1.18678 21.8164 1.29163 21.4645L2.09157 18.7797C2.09159 18.7796 2.09155 18.7797 2.09157 18.7797C2.35226 17.9042 2.82695 17.1072 3.47268 16.4611L16.1286 3.80719Z" fill="black"/>
</svg>
