<svg width="24" height="24" viewBox="0 0 24 24" fill="none" xmlns="http://www.w3.org/2000/svg">
<path fill-rule="evenodd" clip-rule="evenodd" d="M15.75 4C15.1977 4 14.75 3.55228 14.75 3C14.75 2.44772 15.1977 2 15.75 2H21C21.5523 2 22 2.44772 22 3V8.25C22 8.80228 21.5523 9.25 21 9.25C20.4477 9.25 20 8.80228 20 8.25V5.41421L8.20711 17.2071C7.81658 17.5976 7.18342 17.5976 6.79289 17.2071C6.40237 16.8166 6.40237 16.1834 6.79289 15.7929L18.5858 4H15.75ZM2.9519 5.9519C3.5614 5.34241 4.38805 5 5.25 5H13.5C14.0523 5 14.5 5.44772 14.5 6C14.5 6.55228 14.0523 7 13.5 7H5.25C4.91848 7 4.60054 7.1317 4.36612 7.36612C4.1317 7.60054 4 7.91848 4 8.25V18.75C4 19.0815 4.1317 19.3995 4.36612 19.6339C4.60054 19.8683 4.91848 20 5.25 20H15.75C16.0815 20 16.3995 19.8683 16.6339 19.6339C16.8683 19.3995 17 19.0815 17 18.75V10.5C17 9.94772 17.4477 9.5 18 9.5C18.5523 9.5 19 9.94772 19 10.5V18.75C19 19.612 18.6576 20.4386 18.0481 21.0481C17.4386 21.6576 16.612 22 15.75 22H5.25C4.38805 22 3.5614 21.6576 2.9519 21.0481C2.34241 20.4386 2 19.612 2 18.75V8.25C2 7.38805 2.34241 6.5614 2.9519 5.9519Z" fill="black"/>
</svg>
