<svg width="24" height="24" viewBox="0 0 24 24" fill="none" xmlns="http://www.w3.org/2000/svg">
<path fill-rule="evenodd" clip-rule="evenodd" d="M4 5C3.44772 5 3 5.44772 3 6V6.45063L11.5032 11.854C11.6522 11.9468 11.8244 11.996 12 11.996C12.1756 11.996 12.3478 11.9468 12.4968 11.854C12.4976 11.8535 12.4983 11.853 12.4991 11.8526L21 6.45063V6C21 5.44771 20.5523 5 20 5H4ZM23 6.98317V6C23 4.34315 21.6569 3 20 3H4C2.34315 3 1 4.34315 1 6V6.98313C0.999832 6.99375 0.999832 7.00437 1 7.01499V18C1 19.6569 2.34315 21 4 21H20C21.6569 21 23 19.6569 23 18V7.01495C23.0002 7.00436 23.0002 6.99377 23 6.98317ZM21 8.82027L13.5609 13.5474C13.0931 13.8406 12.5521 13.996 12 13.996C11.4479 13.996 10.9069 13.8405 10.4391 13.5474L10.4337 13.544L3 8.82027V18C3 18.5523 3.44772 19 4 19H20C20.5523 19 21 18.5523 21 18V8.82027Z" fill="#09090B"/>
</svg>
