<?xml version="1.0" standalone="no"?>
<svg xmlns:xlink="http://www.w3.org/1999/xlink" xmlns="http://www.w3.org/2000/svg" width="128" height="128" viewBox="0 0 64 64" id="Layer_1" data-name="Layer 1"><defs><style>.cls-1{fill:none;stroke:#000000;stroke-linecap:round;stroke-linejoin:round;stroke-width:2px;}</style></defs><title>drink, beverage, martini, cocktail, glass</title><path class="cls-1" d="M20.75,22.54l.14.16,4.76,5.78,5.23,6.34,5.23-6.34,4.76-5.78.14-.16"/><path class="cls-1" d="M38.72,19.48c1.63.59,2.61,1.37,2.61,2.22a1.12,1.12,0,0,1-.09.44,1.85,1.85,0,0,1-.24.4l-.14.16c-1.32,1.37-5.29,2.36-10,2.36a30.92,30.92,0,0,1-3.64-.21"/><path class="cls-1" d="M20.89,22.7l-.14-.16a1.32,1.32,0,0,1-.33-.84c0-1.85,4.69-3.35,10.46-3.35a30.55,30.55,0,0,1,4.08.26"/><path class="cls-1" d="M30.88,46.64c3.43,0,6.21.89,6.21,2s-2.78,2-6.21,2-6.21-.89-6.21-2c0-.71,1.16-1.33,2.9-1.68"/><line class="cls-1" x1="30.88" y1="47.63" x2="30.88" y2="34.82"/><line class="cls-1" x1="35.59" y1="29.1" x2="30.88" y2="29.1"/><polyline class="cls-1" points="33.23 24.97 38.72 19.48 41.77 16.44"/><circle cx="43.77" cy="14.38" r="1"/></svg>