<svg id="Layer_1" xmlns="http://www.w3.org/2000/svg" version="1.1" viewBox="0 0 32 32">
  <path d="M16,29c-1.7,0-3.4-.3-5-1-1.6-.7-3-1.6-4.2-2.8s-2.2-2.6-2.8-4.2c-.7-1.6-1-3.3-1-5,0-3.5,1.4-6.7,3.8-9.2,2.5-2.5,5.7-3.8,9.2-3.8s6.7,1.4,9.2,3.8c2.5,2.5,3.8,5.7,3.8,9.2s-.3,3.4-1,5c-.7,1.6-1.6,3-2.8,4.2s-2.6,2.2-4.2,2.8c-1.6.7-3.3,1-5,1ZM16,5c-2.9,0-5.7,1.1-7.8,3.2s-3.2,4.8-3.2,7.8.3,2.9.8,4.2c.6,1.3,1.4,2.5,2.4,3.6s2.2,1.8,3.6,2.4c2.7,1.1,5.7,1.1,8.4,0,1.3-.6,2.5-1.4,3.6-2.4s1.8-2.2,2.4-3.6c.6-1.3.8-2.8.8-4.2,0-2.9-1.1-5.7-3.2-7.8-2.1-2.1-4.8-3.2-7.8-3.2ZM16,25c-.6,0-1-.4-1-1v-1.1c-.9-.1-1.7-.5-2.4-1l-1.2-.9c-.4-.3-.5-1-.2-1.4.3-.4,1-.5,1.4-.2l1.2.9c.4.3.8.5,1.2.6v-4c-.9-.2-1.6-.5-2.3-1-1-.8-1.5-1.8-1.5-2.9s.5-2.1,1.5-2.9c.7-.5,1.5-.9,2.3-1v-1.1c0-.6.4-1,1-1s1,.4,1,1v1.1c.8.1,1.6.5,2.3,1l.6.4c.4.3.5,1,.2,1.4-.3.4-1,.5-1.4.2l-.6-.4c-.3-.2-.7-.4-1-.5v3.9c.9.1,1.7.5,2.4,1,1,.7,1.6,1.8,1.6,2.9s-.6,2.2-1.6,2.9c-.7.5-1.5.9-2.4,1v1.1c0,.6-.4,1-1,1ZM17,17.1v3.8c.5-.1.9-.3,1.2-.6.5-.4.8-.8.8-1.3s-.3-.9-.8-1.3c-.3-.3-.8-.4-1.2-.6ZM15,11.1c-.4.1-.7.3-1,.5-.5.4-.7.8-.7,1.3s.3,1,.7,1.3c.3.2.7.4,1,.5v-3.7Z"/>
</svg>