<svg width="67" height="73" viewBox="0 0 67 73" fill="none" xmlns="http://www.w3.org/2000/svg">
<g clip-path="url(#clip0_12_339)">
<path d="M60.7006 22.1479L7.6123 21.7331V43.0567L34.3272 69.8554L60.7006 43.4715V22.1479Z" fill="#253962" stroke="#13223D" stroke-width="2.61719" stroke-miterlimit="10"/>
<path d="M34.237 53.5686L21.5332 41.7755L23.3103 39.8532L35.9447 51.5285L34.237 53.5686Z" fill="#F2C977"/>
<path d="M34.2373 53.5686L46.9882 41.7756L45.2112 39.8532L34.2373 49.9739V53.5686Z" fill="#B88237"/>
<path d="M34.2445 62.2681L17.3545 46.2954L19.1525 44.3927L35.913 60.2372L34.2445 62.2681Z" fill="#F2C977"/>
<path d="M34.2363 62.276L51.1342 46.2954L49.3362 44.3927L34.2363 58.6315V62.276Z" fill="#B88237"/>
<mask id="mask0_12_339" style="mask-type:luminance" maskUnits="userSpaceOnUse" x="1" y="4" width="34" height="36">
<path d="M8.52062 4.90984L34.2371 19.837V39.7132L6.9791 38.1717L1.2998 16.4294L8.52062 4.90984Z" fill="white"/>
</mask>
<g mask="url(#mask0_12_339)">
<path d="M22.1495 36.1852C30.8647 36.1852 37.9298 29.1201 37.9298 20.4049C37.9298 11.6897 30.8647 4.62457 22.1495 4.62457C13.4342 4.62457 6.36914 11.6897 6.36914 20.4049C6.36914 29.1201 13.4342 36.1852 22.1495 36.1852Z" fill="#13203C"/>
<path d="M22.1494 33.1519C29.1893 33.1519 34.8964 27.4449 34.8964 20.4049C34.8964 13.3649 29.1893 7.6579 22.1494 7.6579C15.1094 7.6579 9.40234 13.3649 9.40234 20.4049C9.40234 27.4449 15.1094 33.1519 22.1494 33.1519Z" fill="#B88237"/>
<path d="M22.1495 28.3376C26.5306 28.3376 30.0822 24.786 30.0822 20.4049C30.0822 16.0238 26.5306 12.4722 22.1495 12.4722C17.7684 12.4722 14.2168 16.0238 14.2168 20.4049C14.2168 24.786 17.7684 28.3376 22.1495 28.3376Z" fill="#0F1E3D"/>
<path d="M22.4735 25.3671C25.5277 25.3671 28.0036 22.8912 28.0036 19.837C28.0036 16.7828 25.5277 14.3069 22.4735 14.3069C19.4193 14.3069 16.9434 16.7828 16.9434 19.837C16.9434 22.8912 19.4193 25.3671 22.4735 25.3671Z" fill="white"/>
<path d="M22.7172 22.5039C24.4589 22.5039 25.8709 21.0919 25.8709 19.3502C25.8709 17.6084 24.4589 16.1965 22.7172 16.1965C20.9754 16.1965 19.5635 17.6084 19.5635 19.3502C19.5635 21.0919 20.9754 22.5039 22.7172 22.5039Z" fill="#0E1D3C"/>
<path d="M22.961 19.7244C23.6158 19.7244 24.1466 19.1936 24.1466 18.5388C24.1466 17.8841 23.6158 17.3533 22.961 17.3533C22.3062 17.3533 21.7754 17.8841 21.7754 18.5388C21.7754 19.1936 22.3062 19.7244 22.961 19.7244Z" fill="white"/>
</g>
<mask id="mask1_12_339" style="mask-type:luminance" maskUnits="userSpaceOnUse" x="34" y="4" width="33" height="36">
<path d="M59.7409 4.90984L34.0244 19.837V39.7132L61.2824 38.1717L66.9617 16.4294L59.7409 4.90984Z" fill="white"/>
</mask>
<g mask="url(#mask1_12_339)">
<path d="M46.1124 36.1852C54.8276 36.1852 61.8927 29.1201 61.8927 20.4049C61.8927 11.6897 54.8276 4.62457 46.1124 4.62457C37.3971 4.62457 30.332 11.6897 30.332 20.4049C30.332 29.1201 37.3971 36.1852 46.1124 36.1852Z" fill="#13203C"/>
<path d="M46.1122 33.1519C53.1522 33.1519 58.8593 27.4449 58.8593 20.4049C58.8593 13.3649 53.1522 7.6579 46.1122 7.6579C39.0723 7.6579 33.3652 13.3649 33.3652 20.4049C33.3652 27.4449 39.0723 33.1519 46.1122 33.1519Z" fill="#B88237"/>
<path d="M46.1124 28.3376C50.4935 28.3376 54.0451 24.786 54.0451 20.4049C54.0451 16.0238 50.4935 12.4722 46.1124 12.4722C41.7313 12.4722 38.1797 16.0238 38.1797 20.4049C38.1797 24.786 41.7313 28.3376 46.1124 28.3376Z" fill="#0F1E3D"/>
<path d="M45.7879 25.3671C48.8421 25.3671 51.318 22.8912 51.318 19.837C51.318 16.7828 48.8421 14.3069 45.7879 14.3069C42.7337 14.3069 40.2578 16.7828 40.2578 19.837C40.2578 22.8912 42.7337 25.3671 45.7879 25.3671Z" fill="white"/>
<path d="M45.5443 22.5039C47.2861 22.5039 48.698 21.0919 48.698 19.3502C48.698 17.6084 47.2861 16.1965 45.5443 16.1965C43.8026 16.1965 42.3906 17.6084 42.3906 19.3502C42.3906 21.0919 43.8026 22.5039 45.5443 22.5039Z" fill="#0E1D3C"/>
<path d="M45.3018 19.7244C45.9566 19.7244 46.4874 19.1936 46.4874 18.5388C46.4874 17.8841 45.9566 17.3533 45.3018 17.3533C44.647 17.3533 44.1162 17.8841 44.1162 18.5388C44.1162 19.1936 44.647 19.7244 45.3018 19.7244Z" fill="white"/>
</g>
<path d="M40.3318 28.4357L34.2363 36.8762V23.7588L40.3318 28.4357Z" fill="#F2C977"/>
<path d="M29.9512 27.6872L34.2617 36.1276V23.0103L29.9512 27.6872Z" fill="white"/>
<path d="M34.3202 22.3115L29.1172 28.1976L34.2364 40.7601L39.5388 28.1583L34.3202 22.3115Z" stroke="#12223C" stroke-width="3.92578" stroke-miterlimit="10"/>
<path d="M17.1611 5.68192L54.2218 5.77483L33.8889 19.1748L17.1611 5.68192Z" fill="#253962" stroke="#13223C" stroke-width="2.61719" stroke-miterlimit="10"/>
<path d="M4.13867 2.55699L16.5507 5.64004L34.2363 17.3219L51.5163 5.96457L64.4151 2.47586L60.4396 7.66836L34.2363 22.5955L7.87078 7.66836L4.13867 2.55699Z" fill="#F2C977" stroke="#12223D" stroke-width="2.61719" stroke-miterlimit="10"/>
<path d="M34.2363 12.5507C35.4222 12.5507 36.3837 11.5893 36.3837 10.4033C36.3837 9.21734 35.4222 8.25591 34.2363 8.25591C33.0503 8.25591 32.0889 9.21734 32.0889 10.4033C32.0889 11.5893 33.0503 12.5507 34.2363 12.5507Z" fill="#F2C977"/>
</g>
<defs>
<clipPath id="clip0_12_339">
<rect width="67" height="72.627" fill="white"/>
</clipPath>
</defs>
</svg>
