<svg version="1.1" id="Layer_1" xmlns="http://www.w3.org/2000/svg" xmlns:xlink="http://www.w3.org/1999/xlink" x="0px" y="0px"
	 width="100%" viewBox="0 0 1024 1024" enable-background="new 0 0 1024 1024" xml:space="preserve">
<path fill="#000000" opacity="1.000000" stroke="none" 
	d="
M454.244751,848.755188 
	C431.031982,824.331909 407.166687,801.114441 381.385651,779.924622 
	C343.296326,748.618469 302.443573,722.016968 255.363052,706.069153 
	C249.383957,704.043884 243.319305,702.212830 237.193817,700.697998 
	C232.897369,699.635437 231.533203,697.493042 231.557449,693.019409 
	C231.743362,658.692017 231.639328,624.363098 231.640839,590.034668 
	C231.644241,512.712402 231.656494,435.390106 231.665512,358.067810 
	C231.666382,350.686584 231.774429,351.136230 238.862335,349.451477 
	C257.368408,345.052673 273.222778,335.967102 285.265350,321.013092 
	C297.222931,306.164673 302.126953,288.785370 302.656921,269.977814 
	C302.689789,268.812012 302.761444,267.645874 302.750519,266.480530 
	C302.714264,262.615753 304.304596,260.886536 308.465027,260.933655 
	C322.626862,261.094116 336.792236,260.940918 350.956238,260.913025 
	C363.787567,260.887756 376.623535,260.665405 389.447876,260.954010 
	C394.262299,261.062378 396.226501,259.313751 397.152924,254.724869 
	C401.417847,233.598480 407.834503,213.093735 417.753998,193.945312 
	C429.810333,170.671921 447.287476,151.766342 467.538818,135.335892 
	C480.489838,124.828453 493.702698,114.734467 508.837585,107.415421 
	C512.200806,105.789017 514.891663,105.757271 518.190979,107.448959 
	C534.918030,116.025612 549.750061,127.262848 563.953491,139.431671 
	C585.883240,158.220032 603.997681,179.964767 614.910461,206.964218 
	C621.140137,222.377167 626.577209,238.142502 629.245911,254.646805 
	C630.052490,259.634857 632.297974,261.027863 637.233643,260.986816 
	C663.727417,260.766357 690.224121,260.903931 716.719849,260.928619 
	C723.269043,260.934692 723.157593,260.956543 723.365906,267.621552 
	C724.110596,291.451691 730.613525,313.078827 749.169189,329.278839 
	C761.315247,339.882904 774.780334,348.542023 791.599304,349.653595 
	C795.511841,349.912170 795.130371,352.377869 795.134094,354.853882 
	C795.155518,369.018311 795.147644,383.182800 795.144165,397.347290 
	C795.120300,495.665924 795.043396,593.984619 795.204102,692.302917 
	C795.213379,697.957520 793.170715,700.391968 788.062317,701.659729 
	C736.847229,714.370422 692.972900,741.003662 652.601990,773.945251 
	C629.252075,792.998352 606.282776,812.545837 585.463806,834.441833 
	C563.200256,857.857056 540.937744,881.273315 518.670776,904.685242 
	C517.068604,906.369751 515.398621,907.976013 512.606140,909.132751 
	C492.603485,889.865662 474.364502,868.635620 454.244751,848.755188 
M775.623657,385.500427 
	C775.617065,380.668488 775.331848,375.816040 775.685547,371.010620 
	C776.012085,366.573822 774.331055,364.517365 770.091797,363.187042 
	C744.956177,355.299103 726.728760,339.157196 714.511597,315.967163 
	C709.489929,306.435211 706.690063,296.194275 704.645935,285.719360 
	C703.792786,281.347595 701.995178,278.922821 697.003357,279.276642 
	C691.531921,279.664459 686.010559,279.335632 680.510925,279.337738 
	C660.012329,279.345703 639.513550,279.312439 619.015442,279.420349 
	C615.439880,279.439148 613.555542,278.728271 613.491821,274.508453 
	C613.424805,270.069855 612.258423,265.652618 611.638916,261.216766 
	C608.149048,236.229324 599.155640,213.317810 585.344666,192.298187 
	C567.908020,165.760376 543.621704,146.833252 516.659790,130.894531 
	C514.145935,129.408447 512.245789,129.445724 509.782898,130.817154 
	C492.646210,140.359482 476.822968,151.793167 462.998169,165.621078 
	C432.950500,195.675522 416.890991,232.366379 413.490326,274.599274 
	C413.146576,278.867981 411.397186,279.387329 407.911285,279.376801 
	C382.413269,279.299652 356.913605,279.480164 331.417664,279.240204 
	C326.047791,279.189667 323.371338,280.505829 322.122040,286.165833 
	C320.120087,295.235626 317.840790,304.353790 313.781250,312.789886 
	C301.936218,337.405029 283.482788,354.746033 257.084869,362.796356 
	C251.846191,364.394012 250.371460,367.369293 250.494446,372.249329 
	C250.724915,381.393280 250.890869,390.542206 250.870483,399.688568 
	C250.801468,430.654114 250.145126,461.627502 250.652893,492.582489 
	C251.150223,522.901855 250.421143,553.209412 250.793320,583.524414 
	C251.167435,613.996582 250.846527,644.477051 250.895370,674.953796 
	C250.909576,683.815430 250.972275,683.932312 259.471130,686.826599 
	C286.237244,695.942017 311.549469,708.431458 335.892548,722.465393 
	C359.981476,736.352600 382.005463,753.518738 402.951233,771.934265 
	C434.146332,799.361084 462.682831,829.470337 491.460876,859.338867 
	C498.487579,866.631775 505.371765,874.069519 513.086975,880.358704 
	C514.844238,879.989075 515.627808,878.853882 516.550110,877.911316 
	C543.920349,849.942322 570.628235,821.332703 598.935974,794.271851 
	C621.377136,772.819153 644.945007,752.792908 670.398621,735.047913 
	C699.684937,714.631042 731.807495,699.709595 765.175293,687.378113 
	C775.528137,683.552124 775.647400,683.850464 775.646729,672.480957 
	C775.640869,577.154053 775.631470,481.827179 775.623657,385.500427 
z"/>
<path fill="#000000" opacity="1.000000" stroke="none" 
	d="
M642.906311,530.979492 
	C624.137390,543.254700 603.481750,549.337952 582.048340,553.293396 
	C580.745117,553.533936 579.444702,553.795471 578.152527,554.089111 
	C568.524597,556.277039 569.079834,556.326050 568.242371,566.473511 
	C565.842407,595.553162 558.478333,623.357544 545.372131,649.530518 
	C540.514893,659.230469 534.958923,668.531860 528.600037,677.309998 
	C526.283936,680.507141 526.008484,682.983093 528.575684,686.156189 
	C540.232117,700.563721 552.996887,713.906616 566.390259,726.697449 
	C570.177734,730.314514 572.845093,730.211670 576.888062,726.882935 
	C602.645447,705.675537 631.370361,689.913513 663.656860,681.043335 
	C670.847778,679.067749 678.082703,677.036560 685.617493,676.693542 
	C686.376465,676.658936 687.149170,676.925964 689.388184,677.297241 
	C682.285278,681.072693 676.420532,684.333435 670.432068,687.348633 
	C642.641541,701.341614 616.854492,718.386780 592.774475,738.057190 
	C572.987793,754.220520 554.854187,772.067566 537.898438,791.174011 
	C531.049377,798.891785 523.471924,805.959045 516.360229,813.449890 
	C513.424805,816.541870 511.626770,814.455688 509.949524,812.326477 
	C502.510498,802.882751 494.061188,794.362366 485.768860,785.702637 
	C472.636932,771.988770 459.412445,758.363586 446.236603,744.691833 
	C445.671539,744.105530 445.200500,743.428589 444.777863,742.907471 
	C449.498932,738.027161 453.955780,733.167175 458.680725,728.583618 
	C472.198425,715.469849 485.594025,702.263977 497.283813,687.423523 
	C499.516785,684.588684 499.791016,682.608276 497.633087,679.601868 
	C481.509918,657.138794 470.847595,632.098083 463.535645,605.583130 
	C460.402252,594.220642 459.054596,582.477295 457.758453,570.790588 
	C455.526398,550.665283 456.492432,530.628967 460.608063,510.782013 
	C461.228546,507.789795 459.992950,505.639526 458.150177,503.576355 
	C449.940125,494.384308 441.506622,485.400452 433.404572,476.101959 
	C418.596436,459.107117 404.648254,441.534760 393.472717,421.887390 
	C392.845062,420.783905 392.399261,419.387054 390.684174,419.231567 
	C388.877136,420.925964 389.341095,423.195068 389.340271,425.265778 
	C389.313171,494.094025 389.289917,562.922302 389.349854,631.750549 
	C389.360321,643.766663 394.229248,653.673706 403.312500,661.519165 
	C404.930023,662.916260 406.553772,664.306335 408.159454,665.716919 
	C408.237701,665.785706 408.169495,666.021240 408.169495,666.667236 
	C387.423065,666.667236 366.675171,666.667236 345.091064,666.667236 
	C348.015747,663.443542 351.767151,663.233582 354.325012,660.908447 
	C362.343719,653.619385 366.339752,644.319336 368.689911,634.062683 
	C369.513672,630.467651 369.694916,626.841980 369.693634,623.164001 
	C369.665649,542.336487 369.461334,461.507965 369.853302,380.682343 
	C369.931458,364.569702 367.124329,350.272858 353.795044,338.099335 
	C369.681793,337.079742 384.281860,337.807709 399.452850,337.638397 
	C398.394440,342.969910 396.498718,347.423004 396.316650,352.243683 
	C395.673279,369.282959 400.639557,385.093079 406.988525,400.531067 
	C415.855377,422.091461 429.922363,440.237549 445.226624,457.523315 
	C452.726807,465.994598 460.164520,474.521240 467.628387,483.020386 
	C470.133118,482.296387 470.525543,480.152191 471.301086,478.432434 
	C478.780151,461.846771 487.410278,445.873291 497.381744,430.673035 
	C499.513031,427.424103 498.802979,425.559875 497.007843,422.788025 
	C483.681793,402.211151 470.995605,381.260468 463.322174,357.774139 
	C457.563721,340.148926 454.069855,321.997162 453.983093,303.456665 
	C453.816589,267.884583 464.271057,236.023819 488.318695,209.102951 
	C494.773987,201.876389 501.055664,194.620132 509.332642,189.342392 
	C512.084412,187.587753 514.256165,187.152359 516.957581,189.346130 
	C545.040161,212.151443 564.945618,240.030014 570.326782,276.603363 
	C576.012268,315.245056 568.463440,351.640686 550.489929,386.049164 
	C543.703735,399.040649 536.917419,412.051483 528.484009,424.084778 
	C526.615723,426.750549 527.691284,428.628754 529.063477,430.858032 
	C536.920044,443.622040 544.978271,456.253784 551.466736,469.827637 
	C560.684998,489.112274 565.924988,509.451569 568.267822,530.585693 
	C568.711731,534.589417 570.034058,535.686462 574.005493,534.822144 
	C591.548401,531.004333 609.324280,528.068726 624.696045,517.719788 
	C646.017456,503.365265 659.012817,483.006531 666.163147,458.919281 
	C671.891418,439.622528 671.621338,420.146027 663.418762,401.304718 
	C657.038269,386.648560 647.230286,374.603241 635.017944,364.415619 
	C627.070190,357.785522 618.660400,351.817780 609.766907,346.522614 
	C608.551208,345.798828 606.894592,345.480377 606.392578,342.708191 
	C612.440613,343.381012 618.253052,343.723694 623.952515,344.715332 
	C646.102844,348.569305 665.579529,357.471954 679.995544,375.447998 
	C692.108093,390.551758 697.909119,407.698517 697.747375,427.202087 
	C697.456055,462.334595 684.332825,491.921570 660.325073,517.033203 
	C655.249084,522.342651 649.311768,526.692322 642.906311,530.979492 
M509.861969,661.455078 
	C510.679993,662.425903 511.021606,663.920593 513.444214,664.061218 
	C540.683044,625.117493 550.779297,581.325684 547.569214,534.139648 
	C545.339661,501.367676 531.782227,472.887207 513.101501,446.344421 
	C512.116333,447.032928 511.583344,447.227783 511.329285,447.608704 
	C501.611725,462.179108 492.302063,477.058807 486.660339,493.714294 
	C477.570190,520.550293 475.435852,548.076843 479.143890,576.249023 
	C483.156830,606.737610 492.178986,635.250305 509.861969,661.455078 
M546.809509,263.631561 
	C540.893616,245.136093 530.405334,229.593658 516.514160,216.154327 
	C513.611023,213.345627 511.807739,213.863937 509.120880,216.370728 
	C490.006042,234.204178 478.077271,255.922638 475.585815,281.945862 
	C473.764221,300.972229 474.891510,320.080872 479.019867,338.913208 
	C483.694885,360.239197 493.266174,379.311035 505.438354,397.184021 
	C507.798859,400.650085 509.633789,404.709961 514.253723,407.689758 
	C514.674255,406.887085 514.990173,406.084198 515.470581,405.396271 
	C530.828064,383.405304 543.665710,360.309723 548.412170,333.414642 
	C552.495422,310.277313 553.912964,287.268982 546.809509,263.631561 
M540.960632,758.476257 
	C544.111145,754.825684 547.151123,751.071472 550.446106,747.556274 
	C553.218567,744.598572 553.013184,742.298523 549.949036,739.667542 
	C537.656555,729.113159 527.422363,716.583740 516.605042,704.614014 
	C515.315979,703.187683 514.335327,701.284180 512.166260,700.964111 
	C510.281616,701.708252 509.227509,703.259033 508.033234,704.614197 
	C497.577881,716.478638 486.877777,728.120667 475.510437,739.113098 
	C472.824890,741.709961 472.755463,743.450195 475.170288,746.085632 
	C486.969116,758.962341 498.495361,772.086853 511.141998,784.172180 
	C513.956909,786.862061 515.587708,786.397339 517.959595,783.724060 
	C525.357971,775.385864 532.976746,767.243225 540.960632,758.476257 
z"/>
</svg>