<?xml version="1.0" encoding="UTF-8"?>
<svg version="1.1" xmlns="http://www.w3.org/2000/svg" width="1024" height="1024">
<path d="M0 0 C337.92 0 675.84 0 1024 0 C1024 337.92 1024 675.84 1024 1024 C686.08 1024 348.16 1024 0 1024 C0 686.08 0 348.16 0 0 Z " fill="#FDFDFD" transform="translate(0,0)"/>
<path d="M0 0 C2.10546875 0.94287109 2.10546875 0.94287109 4.1875 2.2734375 C4.96198486 2.76328125 5.73646973 3.253125 6.53442383 3.7578125 C7.34806396 4.29148438 8.1617041 4.82515625 9 5.375 C9.84651123 5.9215625 10.69302246 6.468125 11.56518555 7.03125 C18.66851684 11.67104106 25.45277051 16.5979287 32 22 C32.56525391 22.46374023 33.13050781 22.92748047 33.71289062 23.40527344 C67.86808025 51.59177777 89.66034376 88.15861046 96.8125 132.125 C96.9364917 132.88200195 97.0604834 133.63900391 97.18823242 134.41894531 C97.98814052 139.76424127 98 144.4799669 98 150 C127.37 150 156.74 150 187 150 C188.83282816 154.88754175 190.39145612 159.255131 191.63305664 164.23876953 C197.82024223 188.77500618 211.21855484 210.04814092 233.15234375 223.375 C242.02542751 228.43837839 250.15583961 231.7186132 260 235 C260 340.6 260 446.2 260 555 C254.72 556.98 249.44 558.96 244 561 C227.59117798 567.43804156 211.77852484 575.17001537 196 583 C194.84967285 583.56976562 193.6993457 584.13953125 192.51416016 584.7265625 C180.09122923 590.91912624 168.15692316 597.30979393 156.97167969 605.55371094 C154.80196747 607.14526309 152.6100889 608.7027884 150.4140625 610.2578125 C142.01939522 616.22217071 133.88726259 622.37427538 126 629 C124.63684845 630.11763402 123.27213538 631.23336497 121.90625 632.34765625 C114.84305861 638.11530637 107.83781804 643.90017116 101.1171875 650.06640625 C99.13220248 651.87926157 97.10712831 653.63008628 95.0625 655.375 C91.21041072 658.72125937 87.64135941 662.32995843 84.06005859 665.95922852 C81.51824201 668.52252648 78.94332483 670.98155608 76.1875 673.3125 C72.2565772 676.6749009 68.5989724 680.2875704 64.9375 683.9375 C64.35959717 684.51089111 63.78169434 685.08428223 63.1862793 685.67504883 C60.34027252 688.53074277 57.61003801 691.42755754 55.00390625 694.50390625 C48.44595394 702.08736692 41.08109181 708.97001112 33.9609375 716.01855469 C27.0810111 722.83539296 20.26308017 729.60351117 14 737 C12.58216767 738.51860388 11.1492408 740.02361249 9.6875 741.5 C9.03136719 742.1703125 8.37523437 742.840625 7.69921875 743.53125 C6 745 6 745 4 745 C3.62875 745.86625 3.62875 745.86625 3.25 746.75 C1.83316683 749.3002997 0.12372463 751.01785701 -2 753 C-5.3904648 751.86984507 -6.32260953 750.46721818 -8.48046875 747.7421875 C-10.18346699 745.78964967 -12.02403485 744.17454674 -14 742.5 C-17.44555503 739.56513699 -20.16720935 736.52184783 -23 733 C-24.65223746 731.31902798 -26.32147139 729.65471969 -28 728 C-30.12748003 725.89832637 -32.25163858 723.79333368 -34.375 721.6875 C-34.91382813 721.15705078 -35.45265625 720.62660156 -36.0078125 720.08007812 C-38.82954666 717.27514 -41.52800554 714.41982298 -44.11010742 711.39208984 C-48.39401609 706.47567831 -52.97499029 701.88130296 -57.58984375 697.27734375 C-58.94487755 695.92087486 -58.94487755 695.92087486 -60.32728577 694.53700256 C-62.22796068 692.63565057 -64.12959608 690.73532447 -66.03295898 688.83666992 C-68.45118392 686.42414139 -70.86488958 684.00714919 -73.27727413 681.58878231 C-75.60818401 679.25335425 -77.94293956 676.92177823 -80.27734375 674.58984375 C-81.13279282 673.73237045 -81.98824188 672.87489716 -82.86961365 671.99143982 C-87.19827905 667.67946158 -91.58460671 663.50332509 -96.22941589 659.5324707 C-99.37275936 656.81185339 -102.3586995 653.9221458 -105.375 651.0625 C-110.24053639 646.4857854 -115.15914876 642.11785071 -120.44921875 638.03125 C-122.36184393 636.50817941 -124.19458722 634.96592247 -126.01953125 633.34375 C-134.93088435 625.43404519 -144.36907558 618.56978197 -154.22705078 611.88574219 C-157.09923228 609.93251715 -159.95377351 607.95505683 -162.80859375 605.9765625 C-175.07994473 597.54647696 -187.53184308 590.09743463 -200.89208984 583.53027344 C-204.20611611 581.89851251 -207.5028582 580.23435528 -210.80078125 578.5703125 C-227.29717446 570.341303 -244.10186104 563.38905514 -261.38745117 556.99291992 C-264 556 -264 556 -266 555 C-266 449.73 -266 344.46 -266 236 C-256.24581006 231.66480447 -256.24581006 231.66480447 -252.125 230.125 C-242.23767709 226.17619302 -234.10728562 220.84925854 -226 214 C-225.09507812 213.33097656 -225.09507812 213.33097656 -224.171875 212.6484375 C-205.3696632 198.32712664 -198.87719953 170.57019834 -193 150 C-163.3 150 -133.6 150 -103 150 C-103 146.37 -103 142.74 -103 139 C-102.7121582 135.90966797 -102.7121582 135.90966797 -102.30078125 133.4921875 C-102.14633545 132.57711426 -101.99188965 131.66204102 -101.83276367 130.71923828 C-101.66107666 129.78063965 -101.48938965 128.84204102 -101.3125 127.875 C-101.13243408 126.87581543 -100.95236816 125.87663086 -100.7668457 124.84716797 C-93.11765124 84.02314593 -70.87026791 47.46156273 -38 22 C-37.04480469 21.22785156 -36.08960938 20.45570313 -35.10546875 19.66015625 C-9.4890878 -0.73628292 -9.4890878 -0.73628292 0 0 Z " fill="#FDFDFD" transform="translate(515,128)"/>
<path d="M0 0 C26.32320846 14.19307791 44.89604286 47.62311819 53.44921875 75.296875 C53.8097964 76.64243704 54.15666293 77.99172311 54.4921875 79.34375 C54.67982666 80.09873779 54.86746582 80.85372559 55.06079102 81.6315918 C56.983043 90.57387041 56.8462496 99.55548329 56.8046875 108.65625 C56.80145477 109.92139435 56.80145477 109.92139435 56.79815674 111.21209717 C56.66012721 144.86656815 48.12649811 173.70251551 32.4921875 203.34375 C31.80068604 204.65496826 31.80068604 204.65496826 31.09521484 205.99267578 C20.47521031 226.01728817 20.47521031 226.01728817 13.72265625 235.1015625 C12.28035185 237.19896893 12.28035185 237.19896893 12.7578125 239.22290039 C13.5767698 241.58802076 14.64774165 243.42075807 16.01171875 245.51953125 C16.53362793 246.33583008 17.05553711 247.15212891 17.59326172 247.99316406 C18.15803223 248.87198242 18.72280273 249.75080078 19.3046875 250.65625 C35.13993918 275.80092345 46.90251795 301.19500801 52.3046875 330.46875 C52.42875977 331.13068359 52.55283203 331.79261719 52.68066406 332.47460938 C53.5323741 337.4642735 53.61654344 342.30406197 53.4921875 347.34375 C88.88959112 340.48173879 88.88959112 340.48173879 119.4921875 322.34375 C120.14703125 321.83457031 120.801875 321.32539063 121.4765625 320.80078125 C140.20229339 305.63293923 151.45049358 279.82103435 154.4921875 256.34375 C154.79625667 252.06851714 154.87350791 247.81649083 154.8671875 243.53125 C154.86557617 242.38849609 154.86396484 241.24574219 154.86230469 240.06835938 C154.73776347 231.48722548 153.69580992 224.35834866 150.4921875 216.34375 C150.04166016 215.02310547 150.04166016 215.02310547 149.58203125 213.67578125 C140.1223503 187.26238638 115.10959193 168.57413872 91.4921875 155.34375 C106.69555706 150.71654378 128.97979679 160.50541616 142.0703125 167.33203125 C162.02395628 179.06276932 175.93787772 197.71596714 181.8659668 220.15869141 C183.04365396 226.14859655 183.02114953 232.13220985 182.9921875 238.21875 C182.99108978 238.89572937 182.98999207 239.57270874 182.98886108 240.27020264 C182.93235084 252.46816214 181.3077436 263.73294283 177.4921875 275.34375 C177.10804688 276.53355469 176.72390625 277.72335937 176.328125 278.94921875 C164.82253323 311.07877944 142.92491466 336.32856743 112.1171875 351.15625 C93.872519 359.60443099 74.02647854 363.07253311 54.4921875 367.34375 C54.43796631 368.0651416 54.38374512 368.7865332 54.32788086 369.52978516 C52.16832631 396.78692351 47.04731608 422.98240962 36.4921875 448.34375 C36.18732422 449.08302734 35.88246094 449.82230469 35.56835938 450.58398438 C30.92978323 461.61437819 24.84288987 471.67051513 18.4453125 481.76171875 C17.94193359 482.55755371 17.43855469 483.35338867 16.91992188 484.17333984 C16.03707961 485.51541708 15.11728451 486.83489462 14.14257812 488.11181641 C12.82037971 489.77189051 12.82037971 489.77189051 11.4921875 492.34375 C12.27843291 497.06871052 15.83594427 500.41340807 18.9296875 503.90625 C19.46754883 504.52193848 20.00541016 505.13762695 20.55957031 505.77197266 C22.19537115 507.63686245 23.84197278 509.4916124 25.4921875 511.34375 C26.17595459 512.1164624 26.17595459 512.1164624 26.87353516 512.90478516 C32.70120222 519.47107769 38.80043923 525.74783468 44.9921875 531.96875 C45.68731445 532.6685498 46.38244141 533.36834961 47.09863281 534.08935547 C47.75444336 534.74307129 48.41025391 535.39678711 49.0859375 536.0703125 C49.67052734 536.65377441 50.25511719 537.23723633 50.85742188 537.83837891 C52.62606307 539.54536202 52.62606307 539.54536202 55.4921875 541.34375 C59.25779018 541.04724585 61.16582717 540.10131234 63.8046875 537.46875 C74.31854962 527.82445542 87.11354145 520.34651046 99.4921875 513.34375 C100.62986572 512.6940625 100.62986572 512.6940625 101.79052734 512.03125 C122.33613309 500.41582624 149.26472684 487.33697885 173.4921875 488.34375 C170.09610907 491.11285193 166.3840208 493.03013897 162.48046875 494.96875 C161.07687602 495.67613616 159.6735662 496.38408389 158.27050781 497.0925293 C157.54077759 497.45986176 156.81104736 497.82719421 156.0592041 498.20565796 C144.15964893 504.21261707 132.53221551 510.29327326 121.57080078 517.91455078 C119.14839544 519.58013228 116.6958243 521.19532216 114.23828125 522.80859375 C100.57260111 531.79068573 87.59607871 541.19813552 75.20263672 551.87158203 C73.41870369 553.40699684 71.62981443 554.93647324 69.83984375 556.46484375 C66.87868938 558.9941467 63.92525158 561.53225701 60.97412109 564.07324219 C59.76378199 565.11090359 58.54516732 566.13890568 57.32421875 567.1640625 C52.81548169 570.99024022 48.62032089 575.11365412 44.4296875 579.28125 C43.5624707 580.14145752 43.5624707 580.14145752 42.67773438 581.01904297 C39.05226735 584.6578843 35.63220351 588.42643294 32.27172852 592.31030273 C29.25999279 595.75175517 26.12882307 599.07886249 22.9921875 602.40625 C22.31091797 603.12997803 21.62964844 603.85370605 20.92773438 604.59936523 C13.9306183 611.99638548 6.73818056 619.19145513 -0.5078125 626.34375 C-4.22641336 623.37410678 -7.28560543 620.6230294 -10.1328125 616.78125 C-13.78166579 612.08186313 -17.76269497 607.93209237 -22.03173828 603.80639648 C-24.73256086 601.1815829 -27.27242133 598.49443239 -29.72265625 595.6328125 C-34.2152834 590.43549579 -39.11822057 585.66418222 -44.0078125 580.84375 C-49.54014423 575.38966907 -54.98260248 569.94374291 -60.03759766 564.04101562 C-61.91287047 561.87613741 -63.90273771 559.85049014 -65.9453125 557.84375 C-66.96431641 556.83828125 -66.96431641 556.83828125 -68.00390625 555.8125 C-68.50019531 555.3278125 -68.99648438 554.843125 -69.5078125 554.34375 C-65.93992493 549.85840563 -62.06447336 545.93573578 -57.8203125 542.09375 C-51.9331763 536.74959784 -46.25888593 531.21164838 -40.6328125 525.59375 C-39.83657471 524.80194336 -39.04033691 524.01013672 -38.2199707 523.19433594 C-33.44242189 518.40527014 -28.91051465 513.477298 -24.5078125 508.34375 C-23.54035601 507.25405855 -22.57168619 506.16544259 -21.6015625 505.078125 C-20.745625 504.09328125 -19.8896875 503.1084375 -19.0078125 502.09375 C-18.5540625 501.59101562 -18.1003125 501.08828125 -17.6328125 500.5703125 C-15.21226163 497.83358366 -15.21226163 497.83358366 -14.45703125 494.37890625 C-15.98866005 491.41244304 -17.89087619 488.74534829 -19.8203125 486.03125 C-41.05809736 454.95354986 -51.45570121 420.21662192 -56.5078125 383.34375 C-56.61456299 382.63935791 -56.72131348 381.93496582 -56.83129883 381.20922852 C-57.67282785 375.36348685 -57.69986447 369.54922925 -57.6953125 363.65625 C-57.69450684 362.56425293 -57.69370117 361.47225586 -57.69287109 360.34716797 C-57.63989944 353.18560775 -57.31473476 346.09776009 -56.6328125 338.96875 C-56.5507959 338.10048584 -56.4687793 337.23222168 -56.38427734 336.33764648 C-55.90739128 331.79041843 -55.08340898 327.62403231 -53.8203125 323.21875 C-53.11001468 319.74434749 -53.32423438 318.66736815 -55.10546875 315.52734375 C-57.42351796 312.60493179 -59.86092553 309.97052384 -62.5078125 307.34375 C-63.19101562 306.65667969 -63.87421875 305.96960938 -64.578125 305.26171875 C-65.87377299 303.97393907 -67.177314 302.69405623 -68.48828125 301.421875 C-71.59087743 298.22926152 -74.30216491 294.73964777 -77.0859375 291.26953125 C-79.65030047 288.17161534 -82.33025248 285.22251477 -85.0703125 282.28125 C-97.80414531 268.52897226 -108.66601022 253.20819295 -118.43359375 237.23828125 C-119.02289673 236.28038696 -119.61219971 235.32249268 -120.21936035 234.33557129 C-121.65160045 232.00663699 -123.08103245 229.67603176 -124.5078125 227.34375 C-124.60130825 256.35971276 -124.6718175 285.3756529 -124.71506119 314.39173603 C-124.71914048 317.07536647 -124.72330576 319.75899676 -124.72753906 322.44262695 C-124.72911293 323.44314539 -124.72911293 323.44314539 -124.73071858 324.46387633 C-124.74810062 335.24912326 -124.77962608 346.03428447 -124.81642368 356.81948064 C-124.85389455 367.89478097 -124.87576211 378.97003415 -124.88416648 390.0453946 C-124.8893751 396.26262607 -124.90159272 402.47966346 -124.93073273 408.69683266 C-124.95795816 414.55317452 -124.96624298 420.40924302 -124.96024323 426.26564217 C-124.96134026 428.41057574 -124.96925135 430.5555188 -124.9846344 432.70039749 C-125.08700203 447.71487172 -124.50070829 459.98594481 -113.5078125 471.34375 C-111.24664403 473.18259906 -108.95290581 474.74695437 -106.5078125 476.34375 C-106.5078125 476.67375 -106.5078125 477.00375 -106.5078125 477.34375 C-126.6378125 477.34375 -146.7678125 477.34375 -167.5078125 477.34375 C-165.5078125 475.34375 -165.5078125 475.34375 -162.3203125 473.78125 C-154.25959643 469.23030405 -150.24917506 460.8406747 -147.5078125 452.34375 C-147.16618985 451.36422772 -146.8245672 450.38470545 -146.47259235 449.37550068 C-145.06901218 444.39524274 -145.22820949 439.41994453 -145.24711609 434.28105164 C-145.24329054 433.17548363 -145.23946499 432.06991562 -145.23552352 430.93084556 C-145.22521487 427.23078535 -145.2291817 423.53088094 -145.2331543 419.83081055 C-145.22880662 417.1760812 -145.22368762 414.52136324 -145.21766663 411.86663818 C-145.20493031 405.40653258 -145.20312464 398.94646857 -145.20546689 392.48635253 C-145.2072516 387.23345387 -145.20549713 381.98056782 -145.20124245 376.72767067 C-145.20064726 375.97938343 -145.20005207 375.23109619 -145.19943884 374.46013359 C-145.19822706 372.93985463 -145.19701292 371.41957569 -145.19579647 369.89929674 C-145.1849248 355.64796172 -145.18708151 341.39665037 -145.19318131 327.14531402 C-145.19834871 314.11920075 -145.18709905 301.0931623 -145.16808309 288.06706383 C-145.14869152 274.68065996 -145.1404511 261.29429146 -145.14420635 247.90787345 C-145.14611657 240.39695353 -145.14364836 232.88609727 -145.12949181 225.37518883 C-145.11756012 218.98014475 -145.116193 212.58520351 -145.12828197 206.19015797 C-145.13415853 202.93013927 -145.13366736 199.67034666 -145.12327957 196.41033363 C-145.11281109 192.86918219 -145.12091434 189.32853287 -145.1335907 185.78739929 C-145.12621641 184.76685556 -145.11884213 183.74631182 -145.11124438 182.69484252 C-145.17618321 174.04785336 -146.63710447 166.06551231 -151.9453125 159.03125 C-152.80962891 157.86142578 -152.80962891 157.86142578 -153.69140625 156.66796875 C-155.61113751 154.21153843 -157.5602644 151.77818513 -159.5078125 149.34375 C-144.9878125 149.34375 -130.4678125 149.34375 -115.5078125 149.34375 C-116.4978125 154.29375 -117.4878125 159.24375 -118.5078125 164.34375 C-119.13059502 198.28539753 -100.90759781 232.06252215 -79.5078125 257.34375 C-79.01780762 257.92850098 -78.52780273 258.51325195 -78.02294922 259.11572266 C-72.91369828 265.20379506 -67.69423427 271.17483989 -62.3203125 277.03125 C-49.15046517 291.41579198 -49.15046517 291.41579198 -47.5078125 296.34375 C-44.78884971 293.94932135 -43.47798791 291.52900171 -41.9765625 288.25 C-41.50105957 287.22841797 -41.02555664 286.20683594 -40.53564453 285.15429688 C-40.03145996 284.06181641 -39.52727539 282.96933594 -39.0078125 281.84375 C-35.16207483 273.66934894 -31.18789325 265.64790933 -26.6328125 257.84375 C-25.99182617 256.74450195 -25.99182617 256.74450195 -25.33789062 255.62304688 C-23.58554202 252.66986404 -21.82342983 249.78331421 -19.81933594 246.9921875 C-19.26020508 246.21101562 -18.70107422 245.42984375 -18.125 244.625 C-17.60276855 243.92439453 -17.08053711 243.22378906 -16.54248047 242.50195312 C-15.15939155 239.61698237 -15.49758553 238.35297323 -16.5078125 235.34375 C-17.89541042 232.68201277 -17.89541042 232.68201277 -19.68359375 229.9765625 C-20.34109619 228.93757812 -20.99859863 227.89859375 -21.67602539 226.828125 C-22.38364014 225.71953125 -23.09125488 224.6109375 -23.8203125 223.46875 C-44.80967769 190.05425007 -60.01047747 155.14461609 -59.76855469 114.95751953 C-59.75781929 112.8450859 -59.76853349 110.73350218 -59.78125 108.62109375 C-59.79561291 96.34954755 -58.57074989 84.42090616 -54.9453125 72.65625 C-54.6870166 71.81666748 -54.4287207 70.97708496 -54.16259766 70.11206055 C-46.97660147 47.72330887 -34.1505 29.62823561 -18.5078125 12.34375 C-17.85039062 11.61414063 -17.19296875 10.88453125 -16.515625 10.1328125 C-5.54003028 -1.44972755 -5.54003028 -1.44972755 0 0 Z " fill="#C4943C" transform="translate(513.5078125,187.65625)"/>
<path d="M0 0 C15.15165526 7.30266077 28.26096539 16.77143296 41.15917969 27.48388672 C42.75942199 28.80185816 44.38179257 30.0928723 46.0078125 31.37890625 C72.61814919 52.44219025 92.36236197 80.95305249 103.5625 112.875 C103.91859848 113.87981918 103.91859848 113.87981918 104.28189087 114.90493774 C114 142.44714604 114 142.44714604 114 155 C144.69 155 175.38 155 207 155 C207.66 162.26 208.32 169.52 209 177 C213.36781978 199.51107115 223.77354548 217.4681382 243.01318359 230.50732422 C254.42275236 237.99088669 264.00545031 241.00077862 278 243 C278 358.17 278 473.34 278 592 C270.25893513 595.31759923 270.25893513 595.31759923 266.37109375 595.8984375 C259.99731971 597.0704322 254.1058085 599.32855139 248.0625 601.625 C246.87100342 602.07447998 245.67950684 602.52395996 244.4519043 602.98706055 C240.96293201 604.31208492 237.48040779 605.65266189 234 607 C232.65711914 607.51506104 232.65711914 607.51506104 231.28710938 608.04052734 C195.07264506 622.06161419 160.27144248 645.57411024 131 671 C129.95005859 671.90105469 129.95005859 671.90105469 128.87890625 672.8203125 C125.06188199 676.1227681 121.34145975 679.52251531 117.625 682.9375 C114.19328299 686.07183301 110.72098755 689.07178262 107.0625 691.9375 C101.63169382 696.21007737 96.59276891 700.86713836 91.54101562 705.57226562 C90.01019137 706.99055781 88.46841682 708.39575135 86.921875 709.796875 C79.234186 716.7664899 71.59719304 723.79133224 64.83203125 731.67578125 C59.66751008 737.6205088 53.98929479 743.05532155 48.3828125 748.578125 C43.91562475 753.00457851 39.61307279 757.48361183 35.51953125 762.2578125 C33.45716159 764.62238029 31.24726824 766.8118704 29 769 C26.04816975 771.91626603 23.19611141 774.84605835 20.5 778 C17.02612988 782.06377259 13.2449281 785.77404947 9.4375 789.5234375 C6.58469194 792.42196364 3.95668295 795.46134237 1.375 798.6015625 C0.92125 799.06304688 0.4675 799.52453125 0 800 C-0.66 800 -1.32 800 -2 800 C-2.33 800.66 -2.66 801.32 -3 802 C-6.57794452 798.44700628 -10.15241386 794.89056349 -13.72387695 791.33105469 C-14.93617248 790.12374935 -16.1493687 788.91734766 -17.36352539 787.71191406 C-29.27101344 775.88776372 -29.27101344 775.88776372 -34.63305664 769.58300781 C-37.07206891 766.75847565 -39.79690722 764.23520413 -42.49609375 761.6640625 C-44 760 -44 760 -44 758 C-44.66 758 -45.32 758 -46 758 C-47.19921875 756.77734375 -47.19921875 756.77734375 -48.6875 754.9375 C-52.2659604 750.72928984 -56.08481175 746.82812748 -60 742.9375 C-60.64283936 742.29796387 -61.28567871 741.65842773 -61.94799805 740.99951172 C-63.96339857 738.99771373 -65.98126333 736.99843328 -68 735 C-83.21536174 719.93766633 -83.21536174 719.93766633 -88.48632812 713.71826172 C-91.36361759 710.4520741 -94.56042217 707.5190635 -97.75 704.5625 C-98.4510083 703.90854248 -99.1520166 703.25458496 -99.87426758 702.58081055 C-104.53622568 698.26517239 -109.33232747 694.18609247 -114.3046875 690.23046875 C-117.42769871 687.64606382 -120.36359319 684.90401457 -123.3125 682.125 C-129.34266483 676.46925717 -135.70109906 671.37035192 -142.26025391 666.34570312 C-143.95382694 665.03571511 -145.6261499 663.70318237 -147.29296875 662.359375 C-163.61553031 649.23140636 -181.01263998 637.70828963 -199 627 C-200.09199707 626.34354492 -200.09199707 626.34354492 -201.20605469 625.67382812 C-227.20628636 610.16321993 -255.08092206 600.50561116 -284 592 C-284 476.83 -284 361.66 -284 243 C-277.565 242.01 -277.565 242.01 -271 241 C-261.54386589 238.13477362 -253.00112816 233.78855909 -245 228 C-244.08605469 227.35546875 -243.17210937 226.7109375 -242.23046875 226.046875 C-231.44436927 217.90072993 -223.61191105 206.68717291 -219 194 C-218.44892578 192.48792969 -218.44892578 192.48792969 -217.88671875 190.9453125 C-214.72654165 181.17749236 -213.9369057 171.35538245 -213.23364258 161.15966797 C-213 159 -213 159 -212 155 C-181.64 155 -151.28 155 -120 155 C-118.62167775 148.1096484 -118.62167775 148.1096484 -117.24609375 141.21875 C-110.31397381 109.33769598 -97.59449181 78.85456923 -75 55 C-73.91111791 53.73391775 -72.82760507 52.46319424 -71.75 51.1875 C-62.88767326 41.0824102 -53.268468 32.28716823 -42.5546875 24.19628906 C-40.41739446 22.55170114 -38.37339241 20.80137797 -36.3125 19.0625 C-31.57068591 15.251691 -26.50676434 12.00315008 -21.375 8.75 C-20.17484253 7.98828491 -20.17484253 7.98828491 -18.95043945 7.21118164 C-4.7316786 -1.66948789 -4.7316786 -1.66948789 0 0 Z M-65.4375 70.625 C-74.79733107 82.68399825 -82.61419718 95.12816292 -89 109 C-89.47179687 110.01578125 -89.94359375 111.0315625 -90.4296875 112.078125 C-95.77616088 124.23221976 -98.97492329 136.84593575 -101.3125 149.875 C-101.48402588 150.8131958 -101.65555176 151.7513916 -101.83227539 152.71801758 C-102.06418579 154.09123169 -102.06418579 154.09123169 -102.30078125 155.4921875 C-102.43653564 156.28995605 -102.57229004 157.08772461 -102.7121582 157.90966797 C-103.1478341 162.58717904 -103 167.30224274 -103 172 C-132.7 172 -162.4 172 -193 172 C-195.64 181.24 -198.28 190.48 -201 200 C-205.38444751 209.93351389 -210.20336467 218.56186193 -217 227 C-217.77472656 227.98097656 -218.54945313 228.96195313 -219.34765625 229.97265625 C-230.13169681 242.79824628 -247.02498033 251.69211379 -262.875 256.34375 C-264.96310364 256.80744548 -264.96310364 256.80744548 -266 258 C-266.09727893 259.69937522 -266.12371508 261.40283192 -266.12304783 263.10498905 C-266.12503888 264.21818329 -266.12702993 265.33137753 -266.12908131 266.47830492 C-266.12616847 267.71660459 -266.12325563 268.95490425 -266.12025452 270.23072815 C-266.12110894 271.53423578 -266.12196337 272.83774341 -266.12284368 274.18075126 C-266.12509111 277.81560493 -266.121064 281.4504294 -266.11606562 285.08527935 C-266.11176483 288.99872711 -266.11320728 292.9121731 -266.1139679 296.82562256 C-266.11449337 303.61149552 -266.11134415 310.3973589 -266.10573006 317.18322945 C-266.09761819 326.99457367 -266.09500016 336.80591324 -266.09374207 346.61726045 C-266.09155105 362.53382405 -266.08488963 378.45038254 -266.07543945 394.36694336 C-266.06626661 409.83243789 -266.05918515 425.29793103 -266.05493164 440.76342773 C-266.05466892 441.7160166 -266.05440619 442.66860547 -266.05413551 443.65006066 C-266.05283051 448.42870875 -266.0515668 453.20735685 -266.05032361 457.98600495 C-266.03994946 497.65734021 -266.0223298 537.32866977 -266 577 C-262.84294084 578.26286967 -259.68587524 579.52572326 -256.52880859 580.78857422 C-255.64579575 581.14179245 -254.7627829 581.49501068 -253.85301208 581.8589325 C-252.97793503 582.20896835 -252.10285797 582.55900421 -251.20126343 582.91964722 C-249.8923111 583.44332634 -249.8923111 583.44332634 -248.55691528 583.97758484 C-246.90498707 584.63812939 -245.25284151 585.29813077 -243.60043335 585.95747375 C-242.86502319 586.25098221 -242.12961304 586.54449066 -241.37191772 586.84689331 C-240.40902108 587.23084668 -240.40902108 587.23084668 -239.42667198 587.62255669 C-229.75687005 591.51717748 -220.38260406 595.99299632 -211.02441406 600.57861328 C-208.37469058 601.8751514 -205.71892843 603.15867213 -203.0625 604.44140625 C-188.58920258 611.47753736 -175.05975124 619.32204432 -161.92431641 628.64697266 C-159.6951751 630.2143288 -157.44792765 631.75382313 -155.19921875 633.29296875 C-145.95275799 639.64640276 -137.11413628 646.15627615 -128.68408203 653.55322266 C-126.82653077 655.14902561 -124.93298325 656.69243296 -123.02734375 658.23046875 C-114.01666621 665.50408559 -105.45441998 673.09657 -97.09765625 681.11328125 C-94.2355662 683.85530293 -91.31437609 686.51402433 -88.35009766 689.14501953 C-83.17169041 693.79707228 -78.21613116 698.63897037 -73.30078125 703.56640625 C-72.4214946 704.44473618 -71.54220795 705.3230661 -70.63627625 706.22801208 C-68.79396862 708.06964445 -66.95290212 709.91251916 -65.11303711 711.7565918 C-62.31281155 714.56218785 -59.50726828 717.36238656 -56.70117188 720.16210938 C-54.90072086 721.96322104 -53.10057999 723.76464279 -51.30078125 725.56640625 C-50.47145584 726.39370743 -49.64213043 727.22100861 -48.78767395 728.07337952 C-44.50935577 732.36881086 -40.38074464 736.73301079 -36.43925476 741.34056091 C-34.5627099 743.5041889 -32.55495671 745.50638529 -30.5 747.5 C-27.05239782 750.90085503 -23.84136359 754.42157995 -20.68359375 758.08984375 C-16.97646545 762.29584314 -13.03812728 766.21247539 -8.6875 769.75 C-6 772 -6 772 -4 775 C-0.63820226 773.55922954 1.59156268 771.75249979 4 769 C4 768.34 4 767.68 4 767 C4.54011719 766.78601563 5.08023437 766.57203125 5.63671875 766.3515625 C8.85082019 764.51341523 11.24742445 762.00200241 13.8125 759.375 C14.30814453 758.87871094 14.80378906 758.38242187 15.31445312 757.87109375 C17.97453381 755.18020132 20.50352879 752.42580411 22.94921875 749.5390625 C29.53044193 741.94694749 36.90330421 735.04543592 44.0390625 727.98144531 C53.57040831 718.60534913 53.57040831 718.60534913 62.53564453 708.69580078 C65.18402927 705.62883172 68.06233791 702.79021555 70.9375 699.9375 C71.55085205 699.32608154 72.1642041 698.71466309 72.79614258 698.0847168 C76.42234252 694.49307495 80.12346624 691.05594979 84.0234375 687.76171875 C86.57000191 685.49195482 88.92585229 683.06206984 91.3125 680.625 C95.74836666 676.10982519 100.43531357 672.05866637 105.3828125 668.11328125 C107.82517109 666.14116782 110.16959917 664.10233669 112.5 662 C124.87042499 650.90171091 138.17018904 640.8740221 151.7421875 631.30078125 C153.67367973 629.93669381 155.59842665 628.56283162 157.5078125 627.16796875 C173.78407208 615.38837071 191.97005963 606.71661182 210 598 C211.70712158 597.17435547 211.70712158 597.17435547 213.44873047 596.33203125 C227.42684255 589.62026228 241.48148464 583.65014778 256.16601562 578.6574707 C258.06038486 578.01945049 258.06038486 578.01945049 260 577 C260 471.4 260 365.8 260 257 C250.595 253.535 250.595 253.535 241 250 C234.06875739 246.30333728 228.05347912 241.98206689 222 237 C220.92298828 236.17822266 220.92298828 236.17822266 219.82421875 235.33984375 C201.47851615 220.51338783 193.61433846 197.06500181 188.53735352 174.95507812 C188.17648624 173.01167846 188.17648624 173.01167846 187 172 C184.23061034 171.90482197 181.48622841 171.87445735 178.71655273 171.88647461 C177.84833893 171.88632858 176.98012512 171.88618256 176.08560181 171.8860321 C173.20157414 171.88673154 170.3176102 171.89452537 167.43359375 171.90234375 C165.43962133 171.90420782 163.44564845 171.90563177 161.45167542 171.90663147 C156.19254298 171.91045752 150.93343797 171.92028855 145.67431641 171.93133545 C140.31217825 171.9415477 134.95003569 171.94612869 129.58789062 171.95117188 C119.05858167 171.96191074 108.52929311 171.9789882 98 172 C98.00315531 171.3840437 98.00631062 170.76808741 98.00956154 170.13346577 C98.01201567 169.32438865 98.0144698 168.51531153 98.01699829 167.68171692 C98.0201536 166.88013562 98.02330891 166.07855433 98.02655983 165.25268269 C97.56930253 126.47021972 77.00723744 88.52590824 51 61 C50.35546875 60.31421875 49.7109375 59.6284375 49.046875 58.921875 C44.57661823 54.30624402 39.77390269 50.21853662 34.7578125 46.20703125 C33.06643149 44.85344729 31.39040028 43.48004729 29.7421875 42.07421875 C22.04543132 35.59768001 13.4723222 30.46491074 4.92602539 25.20166016 C3.26452862 24.16504118 1.62944903 23.08629935 0 22 C-19.79619327 19.12853852 -54.55694109 56.95248405 -65.4375 70.625 Z " fill="#C4943B" transform="translate(515,106)"/>
<path d="M0 0 C0 2.1875992 -0.02412697 4.37523738 -0.0625 6.5625 C-0.24948362 9.86009947 -0.24948362 9.86009947 1 12 C0.67 12.66 0.34 13.32 0 14 C0.99 13.67 1.98 13.34 3 13 C3.66 13 4.32 13 5 13 C5.66 12.67 6.32 12.34 7 12 C7.99 12.495 7.99 12.495 9 13 C9.33 12.34 9.66 11.68 10 11 C7.62571009 37.65073732 -4.7434414 65.43033545 -19.921875 87.265625 C-20.63150391 88.28934204 -20.63150391 88.28934204 -21.35546875 89.33374023 C-22.26054024 90.61798471 -23.1841709 91.8894215 -24.12890625 93.14477539 C-26.55823309 96.50412758 -26.55823309 96.50412758 -26.60546875 100.5078125 C-24.5093775 103.76159891 -22.12263166 106.67210653 -19.5625 109.5625 C-19.02463867 110.17818848 -18.48677734 110.79387695 -17.93261719 111.42822266 C-16.29681635 113.29311245 -14.65021472 115.1478624 -13 117 C-12.54415527 117.5151416 -12.08831055 118.0302832 -11.61865234 118.56103516 C-5.79098528 125.12732769 0.30825173 131.40408468 6.5 137.625 C7.54269043 138.67469971 7.54269043 138.67469971 8.60644531 139.74560547 C9.26225586 140.39932129 9.91806641 141.05303711 10.59375 141.7265625 C11.17833984 142.31002441 11.76292969 142.89348633 12.36523438 143.49462891 C14.13387557 145.20161202 14.13387557 145.20161202 17 147 C20.76560268 146.70349585 22.67363967 145.75756234 25.3125 143.125 C35.82636212 133.48070542 48.62135395 126.00276046 61 119 C61.75845215 118.566875 62.5169043 118.13375 63.29833984 117.6875 C83.84394559 106.07207624 110.77253934 92.99322885 135 94 C131.60392157 96.76910193 127.8918333 98.68638897 123.98828125 100.625 C122.58468852 101.33238616 121.1813787 102.04033389 119.77832031 102.7487793 C119.04859009 103.11611176 118.31885986 103.48344421 117.5670166 103.86190796 C105.66746143 109.86886707 94.04002801 115.94952326 83.07861328 123.57080078 C80.65620794 125.23638228 78.2036368 126.85157216 75.74609375 128.46484375 C62.08041361 137.44693573 49.10389121 146.85438552 36.71044922 157.52783203 C34.92651619 159.06324684 33.13762693 160.59272324 31.34765625 162.12109375 C28.38650188 164.6503967 25.43306408 167.18850701 22.48193359 169.72949219 C21.27159449 170.76715359 20.05297982 171.79515568 18.83203125 172.8203125 C14.32329419 176.64649022 10.12813339 180.76990412 5.9375 184.9375 C5.35935547 185.51097168 4.78121094 186.08444336 4.18554688 186.67529297 C0.56007985 190.3141343 -2.85998399 194.08268294 -6.22045898 197.96655273 C-9.23219471 201.40800517 -12.36336443 204.73511249 -15.5 208.0625 C-16.18126953 208.78622803 -16.86253906 209.50995605 -17.56445312 210.25561523 C-24.5615692 217.65263548 -31.75400694 224.84770513 -39 232 C-42.71860086 229.03035678 -45.77779293 226.2792794 -48.625 222.4375 C-52.27385329 217.73811313 -56.25488247 213.58834237 -60.52392578 209.46264648 C-63.22474836 206.8378329 -65.76460883 204.15068239 -68.21484375 201.2890625 C-72.7074709 196.09174579 -77.61040807 191.32043222 -82.5 186.5 C-88.03233173 181.04591907 -93.47478998 175.59999291 -98.52978516 169.69726562 C-100.40505797 167.53238741 -102.39492521 165.50674014 -104.4375 163.5 C-105.11683594 162.8296875 -105.79617188 162.159375 -106.49609375 161.46875 C-107.24052734 160.74171875 -107.24052734 160.74171875 -108 160 C-104.43211243 155.51465563 -100.55666086 151.59198578 -96.3125 147.75 C-90.4253638 142.40584784 -84.75107343 136.86789838 -79.125 131.25 C-77.93064331 130.06229004 -77.93064331 130.06229004 -76.7121582 128.85058594 C-71.93460939 124.06152014 -67.40270215 119.133548 -63 114 C-62.03254351 112.91030855 -61.06387369 111.82169259 -60.09375 110.734375 C-59.2378125 109.74953125 -58.381875 108.7646875 -57.5 107.75 C-57.04625 107.24726562 -56.5925 106.74453125 -56.125 106.2265625 C-53.70444913 103.48983366 -53.70444913 103.48983366 -52.94921875 100.03515625 C-54.48084755 97.06869304 -56.38306369 94.40159829 -58.3125 91.6875 C-72.73069415 70.58905129 -92.56344054 36.52637446 -91 10 C-90.34 10 -89.68 10 -89 10 C-88.01 9.67 -87.02 9.34 -86 9 C-84.96875 8.71125 -83.9375 8.4225 -82.875 8.125 C-81.451875 7.568125 -81.451875 7.568125 -80 7 C-79.67 6.01 -79.34 5.02 -79 4 C-78.67 4.66 -78.34 5.32 -78 6 C-74.9254644 5.2236068 -74.9254644 5.2236068 -73 3 C-72.58333333 4.66666667 -72.16666667 6.33333333 -71.75 8 C-71.47027344 9.10601563 -71.19054687 10.21203125 -70.90234375 11.3515625 C-70.30740706 13.75706411 -69.73648099 16.16864952 -69.19140625 18.5859375 C-63.8408268 41.65288004 -54.66383034 62.67703557 -41 82 C-21.78194675 64.14251689 -13.10516655 30.67497166 -8 6 C-7.01 6 -6.02 6 -5 6 C-5 4.68 -5 3.36 -5 2 C-3.35 1.34 -1.7 0.68 0 0 Z " fill="#C4943B" transform="translate(552,582)"/>
<path d="M0 0 C0.66 0 1.32 0 2 0 C3.29345703 1.67382812 3.29345703 1.67382812 4.7578125 4.03125 C5.29720459 4.8967749 5.83659668 5.7622998 6.39233398 6.65405273 C6.96411377 7.59321533 7.53589355 8.53237793 8.125 9.5 C8.71031494 10.45527588 9.29562988 11.41055176 9.89868164 12.39477539 C14.74288422 20.39402643 19.07633499 28.51701795 23 37 C23.54140625 38.13179688 24.0828125 39.26359375 24.640625 40.4296875 C43.84272243 82.4221531 40.02651214 135.25110099 24.62890625 177.890625 C19.91356621 190.37736394 13.98009152 202.32336889 6.6875 213.5 C6.26694336 214.15355469 5.84638672 214.80710937 5.41308594 215.48046875 C4.19921875 217.28125 4.19921875 217.28125 2 220 C1.01 220 0.02 220 -1 220 C-2.55860135 218.0048673 -3.87334447 216.08736878 -5.1875 213.9375 C-5.77905884 212.98520508 -5.77905884 212.98520508 -6.38256836 212.01367188 C-7.60643572 210.01940293 -8.80657271 208.01261081 -10 206 C-10.35288086 205.41234863 -10.70576172 204.82469727 -11.06933594 204.21923828 C-17.65033673 193.11498478 -22.0034744 181.23922034 -26 169 C-26.25410645 168.22736816 -26.50821289 167.45473633 -26.77001953 166.65869141 C-40.40434768 123.93653324 -39.70865458 71.93892417 -19.33398438 31.52685547 C-6.68480539 7.56656951 -6.68480539 7.56656951 0 0 Z " fill="#FDFDFC" transform="translate(511,444)"/>
<path d="M0 0 C13.83282449 5.52875924 25.5252936 27.74607748 31.1953125 40.8671875 C37.17387099 55.62965555 39.04584523 70.2388704 38.91015625 86.05078125 C38.90711487 86.80941467 38.90407349 87.5680481 38.90093994 88.34967041 C38.82312228 101.5555008 37.60817968 114.12682867 34.47265625 126.98828125 C34.26898437 127.86548828 34.0653125 128.74269531 33.85546875 129.64648438 C29.07991227 149.79520572 20.06837797 167.91336699 8.47265625 184.98828125 C8.08239258 185.56416992 7.69212891 186.14005859 7.29003906 186.73339844 C2.7861896 193.3118407 2.7861896 193.3118407 0.47265625 195.98828125 C-0.18734375 195.98828125 -0.84734375 195.98828125 -1.52734375 195.98828125 C-20.56992628 173.47413815 -32.17997636 144.9964936 -37.13671875 116.24853516 C-37.47570816 114.2870577 -37.84277546 112.33047253 -38.21484375 110.375 C-43.08245754 81.06790866 -39.94074577 47.20142392 -22.35107422 22.32470703 C-5.97984304 -0.02772725 -5.97984304 -0.02772725 0 0 Z " fill="#FDFDFC" transform="translate(512.52734375,212.01171875)"/>
<path d="M0 0 C3.63854976 2.73049982 6.40056273 5.53806009 9.1875 9.125 C13.07043286 13.97705088 17.22703852 18.33611426 21.671875 22.671875 C23.69161467 24.69161467 25.54295872 26.74972255 27.375 28.9375 C32.07980902 34.45856505 37.6002789 39.17660381 43 44 C38.27412492 50.64177038 32.92064754 56.55986013 27.37841797 62.51269531 C22.61546339 67.65189462 17.95492718 72.88496209 13.375 78.1875 C10.08684837 81.96848935 6.59080872 85.50742009 3 89 C0.96166576 87.7260411 -1.03852126 86.38938077 -3 85 C-3 84.34 -3 83.68 -3 83 C-3.54140625 82.79632812 -4.0828125 82.59265625 -4.640625 82.3828125 C-7.94516187 80.44604751 -10.234649 77.70981136 -12.75 74.875 C-13.82027657 73.6901962 -14.89189121 72.50659975 -15.96484375 71.32421875 C-16.4841748 70.75106934 -17.00350586 70.17791992 -17.53857422 69.58740234 C-19.40519913 67.55987225 -21.34479229 65.61670071 -23.3125 63.6875 C-27.08882678 59.96578952 -30.54984814 56.02259858 -34 52 C-35.31104343 50.49872674 -36.62350626 48.99869166 -37.9375 47.5 C-38.95833333 46.33333333 -39.97916667 45.16666667 -41 44 C-36.21987977 38.22369963 -31.03850709 32.99587925 -25.6875 27.75 C-19.68492689 21.81592335 -13.98795721 15.9093799 -8.80078125 9.24609375 C-6.1212873 5.90399175 -3.11440036 2.93414568 0 0 Z " fill="#FDFDFC" transform="translate(511,698)"/>
<path d="M0 0 C1.98 0.99 1.98 0.99 4 2 C3.34 2 2.68 2 2 2 C2 25.76 2 49.52 2 74 C1.67 74 1.34 74 1 74 C0.67 49.58 0.34 25.16 0 0 Z " fill="#BD8826" transform="translate(231,349)"/>
<path d="M0 0 C1.98 0 3.96 0 6 0 C6.66 3.63 7.32 7.26 8 11 C8.33 11 8.66 11 9 11 C9.36923077 16.53846154 9.36923077 16.53846154 7.5 18.875 C6.7575 19.431875 6.7575 19.431875 6 20 C5.67 19.01 5.34 18.02 5 17 C4.34 16.67 3.68 16.34 3 16 C3.33 16.99 3.66 17.98 4 19 C3.01 18.67 2.02 18.34 1 18 C1.3125 15.625 1.3125 15.625 2 13 C2.99 12.34 3.98 11.68 5 11 C4.67 7.7 4.34 4.4 4 1 C2.68 0.67 1.36 0.34 0 0 Z " fill="#CA9C47" transform="translate(714,262)"/>
<path d="M0 0 C0.66 0.66 1.32 1.32 2 2 C1.625 4.625 1.625 4.625 1 7 C1.66 7.33 2.32 7.66 3 8 C1.35 8 -0.3 8 -2 8 C-2.33 9.32 -2.66 10.64 -3 12 C-3.66 12 -4.32 12 -5 12 C-5 11.34 -5 10.68 -5 10 C-8.11332248 10.66868314 -8.11332248 10.66868314 -9.1875 13.0625 C-9.455625 13.701875 -9.72375 14.34125 -10 15 C-10.33 14.01 -10.66 13.02 -11 12 C-9.75 9.8125 -9.75 9.8125 -8 8 C-7.01 8 -6.02 8 -5 8 C-4.9175 7.4225 -4.835 6.845 -4.75 6.25 C-3.79468987 3.3840696 -2.21530827 2.0009236 0 0 Z M-8 12 C-7.01 12.33 -6.02 12.66 -5 13 C-5.99 13.33 -6.98 13.66 -8 14 C-8 13.34 -8 12.68 -8 12 Z " fill="#C99A42" transform="translate(373,640)"/>
<path d="M0 0 C0.99 0.33 1.98 0.66 3 1 C3 2.65 3 4.3 3 6 C3.66 6.33 4.32 6.66 5 7 C5 7.66 5 8.32 5 9 C3.35546875 10.62109375 3.35546875 10.62109375 1.1875 12.4375 C-1.31102718 14.54463676 -3.7242056 16.65241398 -6 19 C-6.66 18.67 -7.32 18.34 -8 18 C-7.4946875 17.5875 -6.989375 17.175 -6.46875 16.75 C-2.54389461 13.42516231 -2.54389461 13.42516231 -0.5703125 8.859375 C-0.62106799 6.90166314 -0.80513493 4.94865068 -1 3 C-0.67 2.01 -0.34 1.02 0 0 Z " fill="#C08D31" transform="translate(568,744)"/>
<path d="M0 0 C0.33 0 0.66 0 1 0 C1.21513703 7.64931657 1.04349737 15.09551796 0.125 22.6875 C0.04652832 23.37005859 -0.03194336 24.05261719 -0.11279297 24.75585938 C-0.56297289 28.19485378 -1.03833607 30.05750411 -3 33 C-2.96970703 32.31373535 -2.93941406 31.6274707 -2.90820312 30.92041016 C-2.77168438 27.82195978 -2.63583386 24.72348047 -2.5 21.625 C-2.45230469 20.54476562 -2.40460937 19.46453125 -2.35546875 18.3515625 C-2.31035156 17.3203125 -2.26523437 16.2890625 -2.21875 15.2265625 C-2.1559082 13.79691162 -2.1559082 13.79691162 -2.09179688 12.33837891 C-2.03505783 10.89304218 -2 9.44644999 -2 8 C-2.66 7.67 -3.32 7.34 -4 7 C-2.68 7 -1.36 7 0 7 C0 4.69 0 2.38 0 0 Z " fill="#BD8726" transform="translate(566,554)"/>
<path d="M0 0 C0.33 0 0.66 0 1 0 C1 5.94 1 11.88 1 18 C2.32 17.67 3.64 17.34 5 17 C5 17.99 5 18.98 5 20 C5.66 20 6.32 20 7 20 C6.67 20.66 6.34 21.32 6 22 C5.34 21.67 4.68 21.34 4 21 C4 21.66 4 22.32 4 23 C3.34 23 2.68 23 2 23 C1.67 24.98 1.34 26.96 1 29 C0.67 29 0.34 29 0 29 C0 19.43 0 9.86 0 0 Z " fill="#C29137" transform="translate(776,485)"/>
<path d="M0 0 C0 0.66 0 1.32 0 2 C-1.6232687 2.6708712 -3.24867578 3.33657029 -4.875 4 C-5.77992188 4.37125 -6.68484375 4.7425 -7.6171875 5.125 C-10 6 -10 6 -12 6 C-12 6.66 -12 7.32 -12 8 C-13.62626404 9.38232443 -15.2925002 10.71937515 -17 12 C-17.66 11.67 -18.32 11.34 -19 11 C-18.67 10.34 -18.34 9.68 -18 9 C-18.99 8.67 -19.98 8.34 -21 8 C-17.87745057 6.66087415 -14.75157642 5.32969342 -11.625 4 C-10.73554688 3.6184375 -9.84609375 3.236875 -8.9296875 2.84375 C-8.07890625 2.4828125 -7.228125 2.121875 -6.3515625 1.75 C-5.56604004 1.41484375 -4.78051758 1.0796875 -3.97119141 0.734375 C-2 0 -2 0 0 0 Z " fill="#C08B2C" transform="translate(263,340)"/>
<path d="M0 0 C0.66 0.33 1.32 0.66 2 1 C1.11957031 1.86882813 0.23914063 2.73765625 -0.66796875 3.6328125 C-1.84128125 4.7967385 -3.01445073 5.9608087 -4.1875 7.125 C-4.76564453 7.69476562 -5.34378906 8.26453125 -5.93945312 8.8515625 C-9.52048345 12.41236101 -12.82820353 16.06960061 -16 20 C-16.33 19.01 -16.66 18.02 -17 17 C-11.39 11.39 -5.78 5.78 0 0 Z " fill="#C08B2B" transform="translate(593,798)"/>
<path d="M0 0 C0.6640625 1.7734375 0.6640625 1.7734375 1 4 C-0.0390625 5.7890625 -0.0390625 5.7890625 -1.625 7.625 C-5.21422357 12.06959928 -7.60781874 16.83458206 -10 22 C-11 19 -11 19 -10.3190918 17.13061523 C-9.94953369 16.44684814 -9.57997559 15.76308105 -9.19921875 15.05859375 C-8.79896484 14.31029297 -8.39871094 13.56199219 -7.98632812 12.79101562 C-7.55771484 12.01435547 -7.12910156 11.23769531 -6.6875 10.4375 C-6.27048828 9.65697266 -5.85347656 8.87644531 -5.42382812 8.07226562 C-2.30245536 2.30245536 -2.30245536 2.30245536 0 0 Z " fill="#BD8728" transform="translate(476,224)"/>
<path d="M0 0 C0.66 0.33 1.32 0.66 2 1 C2 1.66 2 2.32 2 3 C2.99 3 3.98 3 5 3 C4.67 4.32 4.34 5.64 4 7 C3.01 7 2.02 7 1 7 C0.67 7.66 0.34 8.32 0 9 C-0.66 9 -1.32 9 -2 9 C-2 9.99 -2 10.98 -2 12 C-4.475 11.01 -4.475 11.01 -7 10 C-6.34 9.34 -5.68 8.68 -5 8 C-3.68 8 -2.36 8 -1 8 C-0.67 5.36 -0.34 2.72 0 0 Z " fill="#CE9F46" transform="translate(681,389)"/>
<path d="M0 0 C2.29038506 1.9468273 3.63466117 4.02066476 5.0625 6.625 C6.60541916 10.03314359 6.60541916 10.03314359 9 11 C9.33 10.34 9.66 9.68 10 9 C10.66 10.32 11.32 11.64 12 13 C11.01 13.99 10.02 14.98 9 16 C1.33257403 5.62642369 1.33257403 5.62642369 0 0 Z " fill="#C08D2F" transform="translate(714,313)"/>
<path d="M0 0 C1.98 0 3.96 0 6 0 C6.66 1.65 7.32 3.3 8 5 C4.71303767 5.79953138 3.28976808 6.09658936 0 5 C0 3.35 0 1.7 0 0 Z " fill="#C99B43" transform="translate(665,495)"/>
<path d="M0 0 C-3 2 -3 2 -6 3 C-3.37886292 3 -1.49064888 2.68707555 1 2 C-1.36944013 4.61885488 -3.83733102 6.41866551 -7 8 C-7.99 7.67 -8.98 7.34 -10 7 C-9.39816251 4.97954558 -8.72693904 2.97888961 -8 1 C-5.29120665 -0.35439668 -2.99066732 -0.06501451 0 0 Z " fill="#BD8827" transform="translate(677,678)"/>
<path d="M0 0 C0.66 0.33 1.32 0.66 2 1 C0.625 2.5 0.625 2.5 -1 4 C-1.66 4 -2.32 4 -3 4 C-3.04125 4.598125 -3.0825 5.19625 -3.125 5.8125 C-4.45617761 9.14044403 -6.80210675 9.62051664 -10 11 C-10.78375 11.391875 -11.5675 11.78375 -12.375 12.1875 C-12.91125 12.455625 -13.4475 12.72375 -14 13 C-9.99191229 7.69898077 -5.33731159 3.93030788 0 0 Z " fill="#BF8A29" transform="translate(653,746)"/>
<path d="M0 0 C0.66 0.99 1.32 1.98 2 3 C0.95125002 5.62187494 0.35068687 6.79371361 -2.125 8.25 C-2.74375 8.4975 -3.3625 8.745 -4 9 C-4.66 6.36 -5.32 3.72 -6 1 C-5.01 1.33 -4.02 1.66 -3 2 C-2.01 1.34 -1.02 0.68 0 0 Z " fill="#CA9B43" transform="translate(247,360)"/>
<path d="M0 0 C0 0.66 0 1.32 0 2 C-0.66 2 -1.32 2 -2 2 C-2 3.32 -2 4.64 -2 6 C-3.875 5.75 -3.875 5.75 -6 5 C-7.25 2.9375 -7.25 2.9375 -8 1 C-4.93251126 -0.86240388 -3.40254489 -1.2151946 0 0 Z " fill="#C69845" transform="translate(625,345)"/>
<path d="M0 0 C1.32 0.66 2.64 1.32 4 2 C-0.39042858 5.42453429 -3.2902045 7.58221009 -9 8 C-6.14723863 5.06799526 -3.34920216 2.35684596 0 0 Z " fill="#C18D2F" transform="translate(274,331)"/>
<path d="M0 0 C1.32 0.33 2.64 0.66 4 1 C4 1.66 4 2.32 4 3 C3.01 3.33 2.02 3.66 1 4 C-0.34938604 6.17577663 -1.53851757 8.28612355 -2.6875 10.5625 C-3.00783203 11.17802734 -3.32816406 11.79355469 -3.65820312 12.42773438 C-4.44746371 13.9473555 -5.22487915 15.47311811 -6 17 C-6.33 16.34 -6.66 15.68 -7 15 C-6.07421875 12.5390625 -6.07421875 12.5390625 -4.6875 9.625 C-4.23761719 8.66851562 -3.78773438 7.71203125 -3.32421875 6.7265625 C-2.23131415 4.47627515 -1.12721261 2.2332569 0 0 Z " fill="#BF8A2A" transform="translate(298,296)"/>
<path d="M0 0 C1.65 0 3.3 0 5 0 C1.32167983 4.52615993 -2.41086363 8.39424999 -7 12 C-5.33333333 8.66666667 -3.66666667 5.33333333 -2 2 C-1.34 2 -0.68 2 0 2 C0 1.34 0 0.68 0 0 Z " fill="#BD8A2B" transform="translate(463,157)"/>
<path d="M0 0 C0.78375 0.66 1.5675 1.32 2.375 2 C4.71512812 4.20201441 4.71512812 4.20201441 7 4 C6.67 5.65 6.34 7.3 6 9 C5.01 9.33 4.02 9.66 3 10 C0.96564469 6.27034861 0 4.33094958 0 0 Z " fill="#C99A42" transform="translate(469,857)"/>
<path d="M0 0 C3.47064731 1.5532967 6.22929462 3.6229487 9.1875 6 C10.50814453 7.051875 10.50814453 7.051875 11.85546875 8.125 C14 10 14 10 15 12 C12.17705872 10.80567869 10.41324351 9.4881486 8.0625 7.4375 C5.11772404 5.09369873 3.66545616 4.3234226 0 4 C0 2.68 0 1.36 0 0 Z " fill="#BE892B" transform="translate(544,125)"/>
<path d="M0 0 C0.66 1.65 1.32 3.3 2 5 C1.34 5.66 0.68 6.32 0 7 C-1.32 7 -2.64 7 -4 7 C-4.33 5.02 -4.66 3.04 -5 1 C-2 0 -2 0 0 0 Z " fill="#C79843" transform="translate(546,599)"/>
<path d="M0 0 C1.33332095 2.6666419 0.67102033 4.16680303 0 7 C-0.66 7 -1.32 7 -2 7 C-2.4021875 8.7015625 -2.4021875 8.7015625 -2.8125 10.4375 C-3.204375 11.613125 -3.59625 12.78875 -4 14 C-4.99 14.33 -5.98 14.66 -7 15 C-5.45454854 9.52067211 -2.84456788 4.88570819 0 0 Z " fill="#C08A2C" transform="translate(661,472)"/>
<path d="M0 0 C3 1 3 1 4.203125 3.3984375 C4.54859375 4.38070312 4.8940625 5.36296875 5.25 6.375 C5.60578125 7.35210938 5.9615625 8.32921875 6.328125 9.3359375 C7 12 7 12 6 15 C4.68 12.03 3.36 9.06 2 6 C1.34 6 0.68 6 0 6 C-0.38218767 4.34385343 -0.71395102 2.67542976 -1 1 C-0.67 0.67 -0.34 0.34 0 0 Z " fill="#C08C2F" transform="translate(485,618)"/>
<path d="M0 0 C0.66 0.33 1.32 0.66 2 1 C1.34 3.31 0.68 5.62 0 8 C1.32 8 2.64 8 4 8 C4 8.66 4 9.32 4 10 C1.625 10.125 1.625 10.125 -1 10 C-1.66 9.34 -2.32 8.68 -3 8 C-2.60495559 5.0371669 -1.40182371 2.61673759 0 0 Z " fill="#C89B47" transform="translate(671,440)"/>
<path d="M0 0 C3.68754757 0.49831724 5.60490662 1.10067643 8 4 C6.35 3.67 4.7 3.34 3 3 C3 3.66 3 4.32 3 5 C1.35 5.33 -0.3 5.66 -2 6 C-1.34 4.02 -0.68 2.04 0 0 Z " fill="#C08F34" transform="translate(652,355)"/>
<path d="M0 0 C0.99 0 1.98 0 3 0 C2.625 1.9375 2.625 1.9375 2 4 C1.01 4.495 1.01 4.495 0 5 C-0.33 5.99 -0.66 6.98 -1 8 C-1.33 7.34 -1.66 6.68 -2 6 C-4.02463255 5.34786708 -4.02463255 5.34786708 -6 5 C-5.34 4.34 -4.68 3.68 -4 3 C-3.34 3.33 -2.68 3.66 -2 4 C-2 3.34 -2 2.68 -2 2 C-1.34 2 -0.68 2 0 2 C0 1.34 0 0.68 0 0 Z " fill="#CA9B43" transform="translate(779,349)"/>
<path d="M0 0 C0.66 0.66 1.32 1.32 2 2 C4.10820797 1.6814823 4.10820797 1.6814823 6 1 C6 1.66 6 2.32 6 3 C5.01 3.66 4.02 4.32 3 5 C2.42251197 6.96361864 2.42251197 6.96361864 2.3125 9.125 C2.209375 10.40375 2.10625 11.6825 2 13 C1.67 13 1.34 13 1 13 C-0.10228696 8.59085217 -0.07654536 4.51617599 0 0 Z " fill="#BF8928" transform="translate(455,316)"/>
<path d="M0 0 C0 3.86695678 -1.41909971 6.5088452 -3 10 C-4.32 10 -5.64 10 -7 10 C-5.33248852 6.05860922 -2.77289351 3.2107188 0 0 Z " fill="#C08C2F" transform="translate(554,742)"/>
<path d="M0 0 C0.33 0 0.66 0 1 0 C1 4.29 1 8.58 1 13 C-0.65 13 -2.3 13 -4 13 C-4 12.34 -4 11.68 -4 11 C-3.34 11 -2.68 11 -2 11 C-1.34 7.37 -0.68 3.74 0 0 Z " fill="#CA9C45" transform="translate(247,540)"/>
<path d="M0 0 C0.99 0.495 0.99 0.495 2 1 C2 1.99 2 2.98 2 4 C2.99 3.67 3.98 3.34 5 3 C3.68197635 6.64991166 2.40785992 8.7895201 0 12 C0 8.04 0 4.08 0 0 Z " fill="#C18E30" transform="translate(500,449)"/>
<path d="M0 0 C0.99 0.33 1.98 0.66 3 1 C0.33333333 3.66666667 -2.33333333 6.33333333 -5 9 C-5.66 7.02 -6.32 5.04 -7 3 C-5 2 -5 2 -2 2 C-1.34 1.34 -0.68 0.68 0 0 Z " fill="#C18C2E" transform="translate(510,443)"/>
<path d="M0 0 C0.33 0 0.66 0 1 0 C1.89604368 6.04829486 2.11269443 11.8894576 2 18 C-0.53835868 15.41596392 -0.99485632 14.23931642 -1.07421875 10.546875 C-0.94660156 9.29390625 -0.81898438 8.0409375 -0.6875 6.75 C-0.56761719 5.48671875 -0.44773437 4.2234375 -0.32421875 2.921875 C-0.21722656 1.95765625 -0.11023438 0.9934375 0 0 Z " fill="#BB8420" transform="translate(393,351)"/>
<path d="M0 0 C2 1 2 1 3.125 3.25 C4.00513321 6.01613295 4.1645438 8.12048351 4 11 C3.67 10.01 3.34 9.02 3 8 C1.67696283 7.6278958 0.34262065 7.29369827 -1 7 C-1.33 6.34 -1.66 5.68 -2 5 C-1.34 5 -0.68 5 0 5 C0 3.35 0 1.7 0 0 Z " fill="#C18F32" transform="translate(561,250)"/>
<path d="M0 0 C0.66 1.32 1.32 2.64 2 4 C0.02579865 6.52259061 -0.96745642 6.9929808 -4.1875 7.6875 C-5.5796875 7.8421875 -5.5796875 7.8421875 -7 8 C-6.02133662 6.85373678 -5.04205413 5.70800212 -4.0625 4.5625 C-3.51722656 3.92441406 -2.97195313 3.28632813 -2.41015625 2.62890625 C-1.63204305 1.73008851 -0.84063472 0.84063472 0 0 Z " fill="#BD892A" transform="translate(455,145)"/>
<path d="M0 0 C0.66 0 1.32 0 2 0 C3 1 4 2 5 3 C5.66 3 6.32 3 7 3 C7.54372951 6.05847848 8 8.88772805 8 12 C6.66382103 10.18959679 5.33112616 8.3766216 4 6.5625 C3.2575 5.55316406 2.515 4.54382813 1.75 3.50390625 C0 1 0 1 0 0 Z " fill="#BF8B2D" transform="translate(528,227)"/>
<path d="M0 0 C0 3.57811631 -0.86465142 4.26675381 -3 7 C-3.33 7.99 -3.66 8.98 -4 10 C-5.65 10.33 -7.3 10.66 -9 11 C-8.06558465 9.72689688 -7.12732889 8.456612 -6.1875 7.1875 C-5.66542969 6.47980469 -5.14335937 5.77210938 -4.60546875 5.04296875 C-3.16871123 3.21468607 -1.68184237 1.60103312 0 0 Z " fill="#BD8728" transform="translate(447,153)"/>
<path d="M0 0 C0.33 0.66 0.66 1.32 1 2 C1.66 2.33 2.32 2.66 3 3 C2.34 3 1.68 3 1 3 C1.33 5.64 1.66 8.28 2 11 C-0.64465038 7.8745041 -1.84414715 4.91211733 -3 1 C-2.01 0.67 -1.02 0.34 0 0 Z " fill="#C08F33" transform="translate(474,628)"/>
<path d="M0 0 C0.44988281 0.48082031 0.89976562 0.96164062 1.36328125 1.45703125 C3.22545401 3.21254017 4.51325601 3.57125104 7 4 C6.34 5.98 5.68 7.96 5 10 C3 9 3 9 2.1484375 6.93359375 C1.89320313 6.10988281 1.63796875 5.28617187 1.375 4.4375 C1.11460937 3.61121094 0.85421875 2.78492188 0.5859375 1.93359375 C0.39257812 1.29550781 0.19921875 0.65742188 0 0 Z " fill="#C18D30" transform="translate(529,470)"/>
<path d="M0 0 C6.04942966 4.74144487 6.04942966 4.74144487 8 7 C8 7.66 8 8.32 8 9 C6.35 9.33 4.7 9.66 3 10 C3 9.01 3 8.02 3 7 C2.36729133 5.65022151 1.69937532 4.31647119 1 3 C0.67 2.01 0.34 1.02 0 0 Z " fill="#C08E33" transform="translate(536,697)"/>
<path d="M0 0 C-1.26941497 3.91402949 -2.51167694 5.79072873 -6 8 C-6 7.34 -6 6.68 -6 6 C-6.66 6 -7.32 6 -8 6 C-8 5.34 -8 4.68 -8 4 C-6.68 4 -5.36 4 -4 4 C-3.67 3.34 -3.34 2.68 -3 2 C-3.66 1.67 -4.32 1.34 -5 1 C-3 0 -3 0 0 0 Z " fill="#C08C2D" transform="translate(671,500)"/>
<path d="M0 0 C0.66 0.99 1.32 1.98 2 3 C1.34 3 0.68 3 0 3 C-0.33 3.66 -0.66 4.32 -1 5 C-2.15667784 5.91535656 -3.34892918 6.78653288 -4.5625 7.625 C-5.20316406 8.07101562 -5.84382812 8.51703125 -6.50390625 8.9765625 C-6.99761719 9.31429687 -7.49132812 9.65203125 -8 10 C-6.34908222 5.70761377 -3.26245434 3.1206085 0 0 Z " fill="#BD8724" transform="translate(535,764)"/>
<path d="M0 0 C2.64 0 5.28 0 8 0 C7.67 1.32 7.34 2.64 7 4 C3.88742431 4 1.89234315 3.82638376 -1 3 C-0.67 2.01 -0.34 1.02 0 0 Z " fill="#C99B43" transform="translate(598,528)"/>
<path d="M0 0 C2 2 2 2 2.125 5.125 C2.08375 6.07375 2.0425 7.0225 2 8 C-0.475 7.01 -0.475 7.01 -3 6 C-2 4 -1 2 0 0 Z " fill="#C18E33" transform="translate(723,286)"/>
<path d="M0 0 C1.01603958 3.04811873 1.54147968 4.87111156 0.125 7.82421875 C-0.91666667 9.54947917 -1.95833333 11.27473958 -3 13 C-4.23593891 9.29218328 -3.5678132 8.32489747 -2.0625 4.8125 C-1.68222656 3.91144531 -1.30195313 3.01039063 -0.91015625 2.08203125 C-0.60980469 1.39496094 -0.30945313 0.70789063 0 0 Z " fill="#BD8726" transform="translate(406,221)"/>
<path d="M0 0 C3.20395416 0 5.09399739 0.74335022 8 2 C7.01 2.495 7.01 2.495 6 3 C6 3.66 6 4.32 6 5 C4.68 5.33 3.36 5.66 2 6 C1.34 4.02 0.68 2.04 0 0 Z " fill="#C08C2E" transform="translate(498,678)"/>
<path d="M0 0 C0.66 0.33 1.32 0.66 2 1 C2.75 3.375 2.75 3.375 3 6 C2.01 7.485 2.01 7.485 1 9 C-0.06775224 7.03533587 -1.06553465 5.03144641 -2 3 C-1 1 -1 1 0 0 Z " fill="#BE8A2A" transform="translate(474,376)"/>
<path d="M0 0 C2.31 0 4.62 0 7 0 C5.35 1.98 3.7 3.96 2 6 C1.34 5.34 0.68 4.68 0 4 C0 2.68 0 1.36 0 0 Z " fill="#C99A44" transform="translate(240,348)"/>
<path d="M0 0 C0.6875 1.8125 0.6875 1.8125 1 4 C-0.84159673 6.48615558 -2.00470711 7.00156904 -5 8 C-3.8141763 4.62496331 -2.72426311 2.35277269 0 0 Z " fill="#BF8A2E" transform="translate(482,216)"/>
<path d="M0 0 C0.33 0.66 0.66 1.32 1 2 C-1.85276137 4.93200474 -4.65079784 7.64315404 -8 10 C-6.34908222 5.70761377 -3.26245434 3.1206085 0 0 Z " fill="#BC8523" transform="translate(501,194)"/>
<path d="M0 0 C3.77545388 1.09068668 6.47043472 1.9083091 9 5 C7.02 5.33 5.04 5.66 3 6 C3 4.68 3 3.36 3 2 C2.01 1.67 1.02 1.34 0 1 C0 0.67 0 0.34 0 0 Z " fill="#BE8A2C" transform="translate(517,108)"/>
<path d="M0 0 C-2.62198774 2.15377564 -4.64404172 3.40072174 -8 4 C-8.33 3.01 -8.66 2.02 -9 1 C-6.04335481 -0.4783226 -3.25770263 -0.06032783 0 0 Z " fill="#BC8528" transform="translate(687,676)"/>
<path d="M0 0 C0.33 0 0.66 0 1 0 C1.33 3.96 1.66 7.92 2 12 C0.68 10.68 -0.64 9.36 -2 8 C-2 7.34 -2 6.68 -2 6 C-1.34 6 -0.68 6 0 6 C0 4.02 0 2.04 0 0 Z " fill="#C99B45" transform="translate(693,436)"/>
<path d="M0 0 C1 2 1 2 0.875 4.4375 C0 7 0 7 -2.5625 8.8125 C-3.366875 9.204375 -4.17125 9.59625 -5 10 C-3.84414715 6.08788267 -2.64465038 3.1254959 0 0 Z " fill="#BE882A" transform="translate(493,436)"/>
<path d="M0 0 C0.99 0 1.98 0 3 0 C5 2 5 2 5 5 C3.35 5 1.7 5 0 5 C-0.33 4.01 -0.66 3.02 -1 2 C-0.67 1.34 -0.34 0.68 0 0 Z " fill="#CB9D49" transform="translate(393,373)"/>
<path d="M0 0 C1.1875 1.625 1.1875 1.625 2 4 C0.625 7.25 0.625 7.25 -1 10 C-1.33 10 -1.66 10 -2 10 C-1.125 2.25 -1.125 2.25 0 0 Z " fill="#BE8B2D" transform="translate(460,257)"/>
<path d="M0 0 C0.66 0.33 1.32 0.66 2 1 C1.01 2.485 1.01 2.485 0 4 C0 4.99 0 5.98 0 7 C-1.32 7.33 -2.64 7.66 -4 8 C-4 7.01 -4 6.02 -4 5 C-3.34 5 -2.68 5 -2 5 C-1.7834375 4.0409375 -1.7834375 4.0409375 -1.5625 3.0625 C-1 1 -1 1 0 0 Z " fill="#C99A42" transform="translate(515,199)"/>
<path d="M0 0 C-0.33 0.99 -0.66 1.98 -1 3 C-3.3125 3.6875 -3.3125 3.6875 -6 4 C-7.8125 2.5625 -7.8125 2.5625 -9 1 C-5.94152152 0.45627049 -3.11227195 0 0 0 Z " fill="#C79947" transform="translate(580,533)"/>
<path d="M0 0 C1.98 0 3.96 0 6 0 C5.34 1.65 4.68 3.3 4 5 C2.35 4.01 0.7 3.02 -1 2 C-0.67 1.34 -0.34 0.68 0 0 Z " fill="#C08E33" transform="translate(586,531)"/>
<path d="M0 0 C2.97 0.495 2.97 0.495 6 1 C4.35 2.65 2.7 4.3 1 6 C0.34 5.67 -0.32 5.34 -1 5 C-0.67 3.35 -0.34 1.7 0 0 Z " fill="#C28D2F" transform="translate(646,520)"/>
<path d="M0 0 C0.33 0.66 0.66 1.32 1 2 C0.06421005 4.35981813 -0.93347808 6.69631264 -2 9 C-2.99 8.67 -3.98 8.34 -5 8 C-5 6 -5 6 -3.625 4.5625 C-3.08875 4.046875 -2.5525 3.53125 -2 3 C-1.34 2.01 -0.68 1.02 0 0 Z " fill="#BE8A2C" transform="translate(471,478)"/>
<path d="M0 0 C2.2477975 2.05233685 3.0022242 3.00667261 4 6 C3.34 6.66 2.68 7.32 2 8 C0.4375 5.6875 0.4375 5.6875 -1 3 C-0.67 2.01 -0.34 1.02 0 0 Z " fill="#CA9C46" transform="translate(675,484)"/>
<path d="M0 0 C0.99 0 1.98 0 3 0 C3 0.99 3 1.98 3 3 C3.66 3.33 4.32 3.66 5 4 C3.02 4.33 1.04 4.66 -1 5 C-0.67 3.35 -0.34 1.7 0 0 Z " fill="#CC9F47" transform="translate(372,406)"/>
<path d="M0 0 C0.33 0 0.66 0 1 0 C0.88637738 1.4800841 0.75877092 2.95910074 0.625 4.4375 C0.52058594 5.67306641 0.52058594 5.67306641 0.4140625 6.93359375 C0.27742188 7.61550781 0.14078125 8.29742187 0 9 C-0.99 9.495 -0.99 9.495 -2 10 C-2 8.02 -2 6.04 -2 4 C-1.34 4 -0.68 4 0 4 C0 2.68 0 1.36 0 0 Z " fill="#C89C4C" transform="translate(474,318)"/>
<path d="M0 0 C2.475 0.99 2.475 0.99 5 2 C2.33333333 3.33333333 -0.33333333 4.66666667 -3 6 C-2.01 4.02 -1.02 2.04 0 0 Z " fill="#BE892A" transform="translate(509,209)"/>
<path d="M0 0 C0.66 0.33 1.32 0.66 2 1 C-0.52788007 3.79872437 -2.20411134 5.45773019 -6 6 C-4 4 -2 2 0 0 Z " fill="#BE892B" transform="translate(484,121)"/>
</svg>
