<?xml version="1.0" encoding="UTF-8"?>
<!-- This file is generated by npm run icons -->
<svg xmlns="http://www.w3.org/2000/svg" xmlns:xlink="http://www.w3.org/1999/xlink" width="0" height="0">
<defs>
<symbol viewBox="0 0 24 24" id="archive">
<path fill-rule="evenodd" clip-rule="evenodd" d="M3.5 4.5V6.5H20.5V4.5H3.5ZM21.5 9.44999C22.6411 9.21836 23.5 8.20948 23.5 7V4C23.5 2.61929 22.3807 1.5 21 1.5H3C1.61929 1.5 0.5 2.61929 0.5 4V7C0.5 8.20948 1.35888 9.21836 2.5 9.44999V19C2.5 19.9283 2.86875 20.8185 3.52513 21.4749C4.1815 22.1313 5.07174 22.5 6 22.5H18C18.9283 22.5 19.8185 22.1313 20.4749 21.4749C21.1312 20.8185 21.5 19.9283 21.5 19V9.44999ZM18.5 9.5H5.5V19C5.5 19.1326 5.55268 19.2598 5.64645 19.3536C5.74021 19.4473 5.86739 19.5 6 19.5H18C18.1326 19.5 18.2598 19.4473 18.3536 19.3536C18.4473 19.2598 18.5 19.1326 18.5 19V9.5ZM8.5 12C8.5 11.1716 9.17157 10.5 10 10.5H14C14.8284 10.5 15.5 11.1716 15.5 12C15.5 12.8284 14.8284 13.5 14 13.5H10C9.17157 13.5 8.5 12.8284 8.5 12Z"></path>
</symbol>
<symbol viewBox="0 0 24 24" id="bolt">
<path fill-rule="evenodd" clip-rule="evenodd" d="M14.7369 1.37657C15.1386 1.6005 15.3358 2.06947 15.2148 2.51312L13.3092 9.5H20.25C20.6482 9.5 21.0084 9.73625 21.1671 10.1015C21.3258 10.4667 21.2528 10.8912 20.9811 11.1823L10.4811 22.4323C10.1673 22.7685 9.6647 22.8474 9.26305 22.6234C8.8614 22.3995 8.66424 21.9305 8.78524 21.4869L10.6907 14.5H3.75C3.3518 14.5 2.99155 14.2638 2.83285 13.8986C2.67415 13.5333 2.74725 13.1088 3.01894 12.8177L13.5189 1.56769C13.8327 1.23151 14.3353 1.15265 14.7369 1.37657ZM6.05122 12.5H12C12.3117 12.5 12.6055 12.6453 12.7947 12.893C12.9839 13.1407 13.0468 13.4624 12.9648 13.7631L11.7792 18.1103L17.9488 11.5H12C11.6883 11.5 11.3945 11.3547 11.2053 11.107C11.0161 10.8593 10.9532 10.5376 11.0352 10.2369L12.2208 5.8897L6.05122 12.5Z"></path>
</symbol>
<symbol viewBox="0 0 24 24" id="calendar">
<path fill-rule="evenodd" clip-rule="evenodd" d="M8 1C8.55228 1 9 1.44772 9 2V3H15V2C15 1.44772 15.4477 1 16 1C16.5523 1 17 1.44772 17 2V3H19C20.6569 3 22 4.34315 22 6V20C22 21.6569 20.6569 23 19 23H5C3.34315 23 2 21.6569 2 20V6C2 4.34315 3.34315 3 5 3H7V2C7 1.44772 7.44772 1 8 1ZM7 5H5C4.44772 5 4 5.44772 4 6V9H20V6C20 5.44771 19.5523 5 19 5H17V6C17 6.55228 16.5523 7 16 7C15.4477 7 15 6.55228 15 6V5H9V6C9 6.55228 8.55228 7 8 7C7.44772 7 7 6.55228 7 6V5ZM20 11H4V20C4 20.5523 4.44771 21 5 21H19C19.5523 21 20 20.5523 20 20V11Z"></path>
</symbol>
<symbol viewBox="0 0 24 24" id="check">
<path fill-rule="evenodd" clip-rule="evenodd" d="M21.0607 4.93934C21.6464 5.52513 21.6464 6.47487 21.0607 7.06066L10.0607 18.0607C9.47487 18.6464 8.52513 18.6464 7.93934 18.0607L2.93934 13.0607C2.35355 12.4749 2.35355 11.5251 2.93934 10.9393C3.52513 10.3536 4.47487 10.3536 5.06066 10.9393L9 14.8787L18.9393 4.93934C19.5251 4.35355 20.4749 4.35355 21.0607 4.93934Z"></path>
</symbol>
<symbol viewBox="0 0 24 24" id="chervronDown">
<path fill-rule="evenodd" clip-rule="evenodd" d="M3.79289 7.54289C4.18342 7.15237 4.81658 7.15237 5.20711 7.54289L12 14.3358L18.7929 7.54289C19.1834 7.15237 19.8166 7.15237 20.2071 7.54289C20.5976 7.93342 20.5976 8.56658 20.2071 8.95711L12.7071 16.4571C12.3166 16.8476 11.6834 16.8476 11.2929 16.4571L3.79289 8.95711C3.40237 8.56658 3.40237 7.93342 3.79289 7.54289Z"></path>
</symbol>
<symbol viewBox="0 0 24 24" id="chevron-left">
<path fill-rule="evenodd" clip-rule="evenodd" d="M15.5303 5.46967C15.8232 5.76256 15.8232 6.23744 15.5303 6.53033L10.0607 12L15.5303 17.4697C15.8232 17.7626 15.8232 18.2374 15.5303 18.5303C15.2374 18.8232 14.7626 18.8232 14.4697 18.5303L8.46967 12.5303C8.17678 12.2374 8.17678 11.7626 8.46967 11.4697L14.4697 5.46967C14.7626 5.17678 15.2374 5.17678 15.5303 5.46967Z"></path>
</symbol>
<symbol viewBox="0 0 24 24" id="chevron-right">
<path fill-rule="evenodd" clip-rule="evenodd" d="M8.46967 5.46967C8.76256 5.17678 9.23744 5.17678 9.53033 5.46967L15.5303 11.4697C15.8232 11.7626 15.8232 12.2374 15.5303 12.5303L9.53033 18.5303C9.23744 18.8232 8.76256 18.8232 8.46967 18.5303C8.17678 18.2374 8.17678 17.7626 8.46967 17.4697L13.9393 12L8.46967 6.53033C8.17678 6.23744 8.17678 5.76256 8.46967 5.46967Z"></path>
</symbol>
<symbol viewBox="0 0 24 24" id="chevron-up">
<path fill-rule="evenodd" clip-rule="evenodd" d="M11.2929 7.54289C11.6834 7.15237 12.3166 7.15237 12.7071 7.54289L20.2071 15.0429C20.5976 15.4334 20.5976 16.0666 20.2071 16.4571C19.8166 16.8476 19.1834 16.8476 18.7929 16.4571L12 9.66421L5.20711 16.4571C4.81658 16.8476 4.18342 16.8476 3.79289 16.4571C3.40237 16.0666 3.40237 15.4334 3.79289 15.0429L11.2929 7.54289Z"></path>
</symbol>
<symbol viewBox="0 0 24 24" id="close">
<g opacity="0.7">
<path fill-rule="evenodd" clip-rule="evenodd" d="M5.29289 5.29289C5.68342 4.90237 6.31658 4.90237 6.70711 5.29289L12 10.5858L17.2929 5.29289C17.6834 4.90237 18.3166 4.90237 18.7071 5.29289C19.0976 5.68342 19.0976 6.31658 18.7071 6.70711L13.4142 12L18.7071 17.2929C19.0976 17.6834 19.0976 18.3166 18.7071 18.7071C18.3166 19.0976 17.6834 19.0976 17.2929 18.7071L12 13.4142L6.70711 18.7071C6.31658 19.0976 5.68342 19.0976 5.29289 18.7071C4.90237 18.3166 4.90237 17.6834 5.29289 17.2929L10.5858 12L5.29289 6.70711C4.90237 6.31658 4.90237 5.68342 5.29289 5.29289Z"></path>
</g>
</symbol>
<symbol viewBox="0 0 24 24" id="edit">
<path fill-rule="evenodd" clip-rule="evenodd" d="M19.875 3.24976C19.6429 3.24976 19.4202 3.34197 19.2561 3.50611L18.276 4.48679L19.5135 5.72429L20.4939 4.7439C20.658 4.57976 20.7502 4.35713 20.7502 4.125C20.7502 3.89287 20.658 3.67025 20.4939 3.50611C20.3298 3.34197 20.1071 3.24976 19.875 3.24976ZM18.0993 7.1385L16.8624 5.90166L4.88731 17.8749C4.88722 17.875 4.8874 17.8748 4.88731 17.8749C4.4765 18.286 4.17427 18.7933 4.00842 19.3503L3.73628 20.2637L4.64945 19.9916C5.20653 19.8258 5.71374 19.5237 6.12489 19.1129C6.12496 19.1128 6.12482 19.113 6.12489 19.1129L18.0993 7.1385ZM16.1286 3.80719C16.1371 3.79804 16.1458 3.78901 16.1547 3.78011L17.8417 2.09211C18.3809 1.55289 19.1124 1.24976 19.875 1.24976C20.6376 1.24976 21.3689 1.55268 21.9081 2.0919C22.4473 2.63111 22.7502 3.36244 22.7502 4.125C22.7502 4.88757 22.4473 5.6189 21.9081 6.15811L7.5391 20.5271C6.89295 21.1729 6.0959 21.6478 5.22034 21.9084L2.53554 22.7084C2.18363 22.8132 1.80255 22.7168 1.54289 22.4571C1.28324 22.1975 1.18678 21.8164 1.29163 21.4645L2.09157 18.7797C2.09159 18.7796 2.09155 18.7797 2.09157 18.7797C2.35226 17.9042 2.82695 17.1072 3.47268 16.4611L16.1286 3.80719Z"></path>
</symbol>
<symbol viewBox="0 0 24 24" id="external-link">
<path fill-rule="evenodd" clip-rule="evenodd" d="M15.75 4C15.1977 4 14.75 3.55228 14.75 3C14.75 2.44772 15.1977 2 15.75 2H21C21.5523 2 22 2.44772 22 3V8.25C22 8.80228 21.5523 9.25 21 9.25C20.4477 9.25 20 8.80228 20 8.25V5.41421L8.20711 17.2071C7.81658 17.5976 7.18342 17.5976 6.79289 17.2071C6.40237 16.8166 6.40237 16.1834 6.79289 15.7929L18.5858 4H15.75ZM2.9519 5.9519C3.5614 5.34241 4.38805 5 5.25 5H13.5C14.0523 5 14.5 5.44772 14.5 6C14.5 6.55228 14.0523 7 13.5 7H5.25C4.91848 7 4.60054 7.1317 4.36612 7.36612C4.1317 7.60054 4 7.91848 4 8.25V18.75C4 19.0815 4.1317 19.3995 4.36612 19.6339C4.60054 19.8683 4.91848 20 5.25 20H15.75C16.0815 20 16.3995 19.8683 16.6339 19.6339C16.8683 19.3995 17 19.0815 17 18.75V10.5C17 9.94772 17.4477 9.5 18 9.5C18.5523 9.5 19 9.94772 19 10.5V18.75C19 19.612 18.6576 20.4386 18.0481 21.0481C17.4386 21.6576 16.612 22 15.75 22H5.25C4.38805 22 3.5614 21.6576 2.9519 21.0481C2.34241 20.4386 2 19.612 2 18.75V8.25C2 7.38805 2.34241 6.5614 2.9519 5.9519Z"></path>
</symbol>
<symbol viewBox="0 0 24 24" id="mail">
<path fill-rule="evenodd" clip-rule="evenodd" d="M4 5C3.44772 5 3 5.44772 3 6V6.45063L11.5032 11.854C11.6522 11.9468 11.8244 11.996 12 11.996C12.1756 11.996 12.3478 11.9468 12.4968 11.854C12.4976 11.8535 12.4983 11.853 12.4991 11.8526L21 6.45063V6C21 5.44771 20.5523 5 20 5H4ZM23 6.98317V6C23 4.34315 21.6569 3 20 3H4C2.34315 3 1 4.34315 1 6V6.98313C0.999832 6.99375 0.999832 7.00437 1 7.01499V18C1 19.6569 2.34315 21 4 21H20C21.6569 21 23 19.6569 23 18V7.01495C23.0002 7.00436 23.0002 6.99377 23 6.98317ZM21 8.82027L13.5609 13.5474C13.0931 13.8406 12.5521 13.996 12 13.996C11.4479 13.996 10.9069 13.8405 10.4391 13.5474L10.4337 13.544L3 8.82027V18C3 18.5523 3.44772 19 4 19H20C20.5523 19 21 18.5523 21 18V8.82027Z"></path>
</symbol>
<symbol viewBox="0 0 64 64" id="martini" data-name="Layer 1"><defs><style>.cls-1{fill:none;stroke:#000000;stroke-linecap:round;stroke-linejoin:round;stroke-width:2px;}</style></defs><title>drink, beverage, martini, cocktail, glass</title><path class="cls-1" d="M20.75,22.54l.14.16,4.76,5.78,5.23,6.34,5.23-6.34,4.76-5.78.14-.16"></path><path class="cls-1" d="M38.72,19.48c1.63.59,2.61,1.37,2.61,2.22a1.12,1.12,0,0,1-.09.44,1.85,1.85,0,0,1-.24.4l-.14.16c-1.32,1.37-5.29,2.36-10,2.36a30.92,30.92,0,0,1-3.64-.21"></path><path class="cls-1" d="M20.89,22.7l-.14-.16a1.32,1.32,0,0,1-.33-.84c0-1.85,4.69-3.35,10.46-3.35a30.55,30.55,0,0,1,4.08.26"></path><path class="cls-1" d="M30.88,46.64c3.43,0,6.21.89,6.21,2s-2.78,2-6.21,2-6.21-.89-6.21-2c0-.71,1.16-1.33,2.9-1.68"></path><line class="cls-1" x1="30.88" y1="47.63" x2="30.88" y2="34.82"></line><line class="cls-1" x1="35.59" y1="29.1" x2="30.88" y2="29.1"></line><polyline class="cls-1" points="33.23 24.97 38.72 19.48 41.77 16.44"></polyline><circle cx="43.77" cy="14.38" r="1"></circle></symbol>
<symbol viewBox="0 0 24 24" id="plus">
<path fill-rule="evenodd" clip-rule="evenodd" d="M12 3.5C12.8284 3.5 13.5 4.17157 13.5 5V10.5H19C19.8284 10.5 20.5 11.1716 20.5 12C20.5 12.8284 19.8284 13.5 19 13.5H13.5V19C13.5 19.8284 12.8284 20.5 12 20.5C11.1716 20.5 10.5 19.8284 10.5 19V13.5H5C4.17157 13.5 3.5 12.8284 3.5 12C3.5 11.1716 4.17157 10.5 5 10.5H10.5V5C10.5 4.17157 11.1716 3.5 12 3.5Z"></path>
</symbol>
<symbol id="salary" viewBox="0 0 32 32">
  <path d="M16,29c-1.7,0-3.4-.3-5-1-1.6-.7-3-1.6-4.2-2.8s-2.2-2.6-2.8-4.2c-.7-1.6-1-3.3-1-5,0-3.5,1.4-6.7,3.8-9.2,2.5-2.5,5.7-3.8,9.2-3.8s6.7,1.4,9.2,3.8c2.5,2.5,3.8,5.7,3.8,9.2s-.3,3.4-1,5c-.7,1.6-1.6,3-2.8,4.2s-2.6,2.2-4.2,2.8c-1.6.7-3.3,1-5,1ZM16,5c-2.9,0-5.7,1.1-7.8,3.2s-3.2,4.8-3.2,7.8.3,2.9.8,4.2c.6,1.3,1.4,2.5,2.4,3.6s2.2,1.8,3.6,2.4c2.7,1.1,5.7,1.1,8.4,0,1.3-.6,2.5-1.4,3.6-2.4s1.8-2.2,2.4-3.6c.6-1.3.8-2.8.8-4.2,0-2.9-1.1-5.7-3.2-7.8-2.1-2.1-4.8-3.2-7.8-3.2ZM16,25c-.6,0-1-.4-1-1v-1.1c-.9-.1-1.7-.5-2.4-1l-1.2-.9c-.4-.3-.5-1-.2-1.4.3-.4,1-.5,1.4-.2l1.2.9c.4.3.8.5,1.2.6v-4c-.9-.2-1.6-.5-2.3-1-1-.8-1.5-1.8-1.5-2.9s.5-2.1,1.5-2.9c.7-.5,1.5-.9,2.3-1v-1.1c0-.6.4-1,1-1s1,.4,1,1v1.1c.8.1,1.6.5,2.3,1l.6.4c.4.3.5,1,.2,1.4-.3.4-1,.5-1.4.2l-.6-.4c-.3-.2-.7-.4-1-.5v3.9c.9.1,1.7.5,2.4,1,1,.7,1.6,1.8,1.6,2.9s-.6,2.2-1.6,2.9c-.7.5-1.5.9-2.4,1v1.1c0,.6-.4,1-1,1ZM17,17.1v3.8c.5-.1.9-.3,1.2-.6.5-.4.8-.8.8-1.3s-.3-.9-.8-1.3c-.3-.3-.8-.4-1.2-.6ZM15,11.1c-.4.1-.7.3-1,.5-.5.4-.7.8-.7,1.3s.3,1,.7,1.3c.3.2.7.4,1,.5v-3.7Z"></path>
</symbol>
<symbol viewBox="0 0 24 24" id="trash">
<path fill-rule="evenodd" clip-rule="evenodd" d="M9.33211 3.33211C9.09745 3.56676 9 3.82523 9 4V5H15V4C15 3.82523 14.9025 3.56676 14.6679 3.33211C14.4332 3.09745 14.1748 3 14 3H10C9.82523 3 9.56676 3.09745 9.33211 3.33211ZM17 5V4C17 3.17477 16.5975 2.43324 16.0821 1.91789C15.5668 1.40255 14.8252 1 14 1H10C9.17477 1 8.43324 1.40255 7.91789 1.91789C7.40255 2.43324 7 3.17477 7 4V5H3C2.44772 5 2 5.44772 2 6C2 6.55228 2.44772 7 3 7H4V20C4 20.8252 4.40255 21.5668 4.91789 22.0821C5.43324 22.5975 6.17477 23 7 23H17C17.8252 23 18.5668 22.5975 19.0821 22.0821C19.5975 21.5668 20 20.8252 20 20V7H21C21.5523 7 22 6.55228 22 6C22 5.44772 21.5523 5 21 5H17ZM6 7V20C6 20.1748 6.09745 20.4332 6.33211 20.6679C6.56676 20.9025 6.82523 21 7 21H17C17.1748 21 17.4332 20.9025 17.6679 20.6679C17.9025 20.4332 18 20.1748 18 20V7H6ZM10 10C10.5523 10 11 10.4477 11 11V17C11 17.5523 10.5523 18 10 18C9.44772 18 9 17.5523 9 17V11C9 10.4477 9.44772 10 10 10ZM14 10C14.5523 10 15 10.4477 15 11V17C15 17.5523 14.5523 18 14 18C13.4477 18 13 17.5523 13 17V11C13 10.4477 13.4477 10 14 10Z"></path>
</symbol>
<symbol viewBox="0 0 24 24" id="view">
<path fill-rule="evenodd" clip-rule="evenodd" d="M2.8308 12C2.9193 12.1752 3.04942 12.4192 3.22259 12.7101C3.59325 13.3328 4.15645 14.1624 4.9246 14.9897C6.46133 16.6446 8.77611 18.25 12 18.25C15.2239 18.25 17.5387 16.6446 19.0754 14.9897C19.8435 14.1624 20.4067 13.3328 20.7774 12.7101C20.9506 12.4192 21.0807 12.1752 21.1692 12C21.0807 11.8248 20.9506 11.5808 20.7774 11.2899C20.4067 10.6672 19.8435 9.83757 19.0754 9.01034C17.5387 7.3554 15.2239 5.75 12 5.75C8.77611 5.75 6.46133 7.3554 4.9246 9.01034C4.15645 9.83757 3.59325 10.6672 3.22259 11.2899C3.04942 11.5808 2.9193 11.8248 2.8308 12ZM22 12C22.6894 11.7046 22.6892 11.7042 22.6891 11.7039L22.6887 11.7031L22.6878 11.701L22.6852 11.6949L22.6765 11.6752C22.6692 11.6588 22.6588 11.6358 22.6455 11.6069C22.6187 11.549 22.5797 11.4668 22.5282 11.3638C22.4253 11.1579 22.2721 10.8682 22.0663 10.5226C21.6558 9.83284 21.0315 8.91243 20.1746 7.98966C18.4613 6.1446 15.7761 4.25 12 4.25C8.22389 4.25 5.53867 6.1446 3.8254 7.98966C2.96855 8.91243 2.34425 9.83284 1.93366 10.5226C1.72794 10.8682 1.57469 11.1579 1.47176 11.3638C1.42026 11.4668 1.38127 11.549 1.35453 11.6069C1.34115 11.6358 1.33083 11.6588 1.32353 11.6752L1.31483 11.6949L1.31218 11.701L1.31127 11.7031L1.31092 11.7039C1.31077 11.7042 1.31064 11.7046 2 12L1.31064 11.7046C1.22979 11.8932 1.22979 12.1068 1.31064 12.2954L2 12C1.31064 12.2954 1.31077 12.2958 1.31092 12.2961L1.31127 12.2969L1.31218 12.299L1.31483 12.3051L1.32353 12.3248C1.33083 12.3412 1.34115 12.3642 1.35453 12.3931C1.38127 12.451 1.42026 12.5332 1.47176 12.6362C1.57469 12.8421 1.72794 13.1318 1.93366 13.4774C2.34425 14.1672 2.96855 15.0876 3.8254 16.0103C5.53867 17.8554 8.22389 19.75 12 19.75C15.7761 19.75 18.4613 17.8554 20.1746 16.0103C21.0315 15.0876 21.6558 14.1672 22.0663 13.4774C22.2721 13.1318 22.4253 12.8421 22.5282 12.6362C22.5797 12.5332 22.6187 12.451 22.6455 12.3931C22.6588 12.3642 22.6692 12.3412 22.6765 12.3248L22.6852 12.3051L22.6878 12.299L22.6887 12.2969L22.6891 12.2961C22.6892 12.2958 22.6894 12.2954 22 12ZM22 12L22.6894 12.2954C22.7702 12.1068 22.7702 11.8932 22.6894 11.7046L22 12ZM12 9.75C10.7574 9.75 9.75 10.7574 9.75 12C9.75 13.2426 10.7574 14.25 12 14.25C13.2426 14.25 14.25 13.2426 14.25 12C14.25 10.7574 13.2426 9.75 12 9.75ZM8.25 12C8.25 9.92893 9.92893 8.25 12 8.25C14.0711 8.25 15.75 9.92893 15.75 12C15.75 14.0711 14.0711 15.75 12 15.75C9.92893 15.75 8.25 14.0711 8.25 12Z"></path>
</symbol>
</defs>
</svg>
